<svg width="1450" height="107" viewBox="0 0 1450 107" fill="none" xmlns="http://www.w3.org/2000/svg">
<path d="M8.53119 59.4049C7.53698 37.0457 1 2.38329 1 2.38329H1450V52.2116C1450 52.2116 1447.99 106.516 1441.97 59.4049C1437.58 62.107 1423.17 95.9993 1414.35 96.6508C1402.29 97.542 1409.56 54.4369 1400.29 52.2116C1394.03 50.7067 1381.41 58.6709 1368.16 58.4073C1343.66 57.92 1338.85 60.9072 1333.02 63.8194C1327.7 66.4706 1321.53 69.0597 1298.87 68.9085C1284.89 68.8152 1260.21 103.018 1253 103.018C1245.79 103.018 1263.14 58.4974 1235.11 59.4049C1204.52 60.3951 1214.86 66.4815 1196.45 66.9658C1185.94 67.2423 1209.27 54.6303 1196.45 52.8054C1186.82 51.4341 1142.52 60.7666 1127.16 60.6651C1110.15 60.5526 1114.54 94.2654 1105.5 95.7555C1093.99 97.6519 1069.62 67.4068 1048.34 66.9658C1031.45 66.6158 1031.82 47.0123 1021.5 46.6486C1008.38 46.1862 1059 87.4557 995.219 60.6651C967.5 49.0217 975.208 66.3995 969.966 70.3436C967.704 72.0451 955.389 64.2475 946.415 73.2665C893.696 126.246 920.024 70.082 918.027 67.0552C937.879 26.8636 910.276 71.08 890.354 61.6627C851.522 43.3056 818.449 76.129 840 87.4557C861.551 98.7824 809.849 121.131 809.849 63.2405C805.634 61.9252 799.308 60.8527 785.75 60.6651C765.87 60.3899 755.117 50.6561 747.591 52.8054C739.737 55.0489 724.943 81.0494 716.463 68.9085C686.84 26.4982 692 53.5651 680.5 70.5104C669 87.4557 667.764 94.8663 656 92.2972C644.236 89.7282 634.003 60.5279 627.595 62.7217C623.079 64.2677 616.362 65.5088 598.976 65.3381C581.067 65.1623 535.212 29.7866 567.847 61.0258C566 85.7266 534.5 54.8369 526.175 54.8369C491.814 54.8369 490.5 54.8369 497.054 59.4479C471.448 62.7217 490.468 43.6864 471.448 44.0364C457.695 44.2894 445.5 75.0061 436.302 62.215C412.203 84.9587 408.5 52.1818 391.618 59.4049C379.551 64.5675 370.959 73.5273 367.5 75.0061C361.076 77.7525 362.892 69.3301 337 69.4729C326.575 69.5305 318.251 98.3965 308 96.7929C297.836 95.203 290.159 51.5902 278.65 49.8824C271.574 48.8325 262.545 60.082 254.5 59.4479C245.86 58.767 240.546 65.4499 229.5 75.0061C215.765 86.8893 201.558 71.6756 187.5 62.215C155.869 44.9766 176.158 81.8578 157 82.2684C138.483 82.6652 123.033 36.2313 115 58.0608C95 58.0608 120.325 85.3328 101.5 85.7266C94.0842 85.8818 88.9696 73.4619 79.3243 73.2666C71.4932 73.1081 68.8679 59.1017 62 59.4479C52.6602 59.9188 44.3003 61.0962 41.5 63.9398C37.8163 67.6803 32.4543 66.0744 43.5 84.3433C43.5 84.3433 48.0902 96.122 49.1997 103.033C51.1337 115.08 11.54 91.7039 6 84.3433C21.0624 73.0166 9.03811 70.8052 8.53119 59.4049Z" fill="#CAE4E6"/>
<path d="M9.49988 58.5675C8.50979 36.8078 1.99988 3.07494 1.99988 3.07494H1445V51.567C1445 51.567 1443 104.415 1437.01 58.5675C1432.64 61.1971 1418.28 94.1805 1409.5 94.8146C1397.48 95.6819 1404.73 53.7326 1395.5 51.567C1389.26 50.1025 1376.7 57.8531 1363.5 57.5966C1339.1 57.1224 1334.31 60.0295 1328.5 62.8636C1323.21 65.4437 1317.06 67.9633 1294.5 67.8162C1280.57 67.7254 1260.33 96.2645 1255.5 94.8146C1245.39 91.7781 1258.91 57.6843 1231 58.5675C1200.54 59.5311 1210.84 65.4542 1192.5 65.9256C1182.03 66.1947 1205.26 53.9209 1192.5 52.145C1182.91 50.8104 1138.79 59.8926 1123.5 59.7938C1106.56 59.6843 1107 86.964 1098 88.4141C1086.54 90.2597 1066.2 66.3548 1045 65.9256C1028.18 65.585 1016.91 19.076 1016.91 62.4568C1011.8 61.2232 1005.92 60.0744 992.102 59.7938C957.457 59.0904 972.174 65.3745 966.953 69.2128C964.701 70.8687 952.437 63.2802 943.5 72.0574C891 123.617 917.218 68.9582 915.229 66.0126C935 26.8988 907.511 69.9295 887.672 60.7647C849 42.8999 807.538 74.9021 829 85.9251C850.462 96.948 807.5 118.638 807.5 62.3002C803.302 61.0201 797.002 59.9765 783.5 59.7938C763.702 59.526 752.994 50.0532 745.5 52.145C737.678 54.3283 722.945 79.6315 714.5 67.8162C685 26.5432 680.354 70.6267 676 67.8162C671.314 78.0783 674 75.3483 660 88.4141C646.875 100.663 632.382 59.6603 626 61.7953C621.503 63.2998 614.814 64.5077 597.5 64.3415C579.665 64.1704 534 29.7434 566.5 60.1449C553 72.0574 552.969 53.6812 525 54.1219C504.667 54.4423 500.598 56.5501 496 58.6093C470.5 61.7953 489.441 43.2704 470.5 43.611C456.804 43.8573 444.539 62.2441 435.5 61.3022C411.5 83.436 410.817 58.1883 391 58.5675C376.876 58.8377 370.944 70.6183 367.5 72.0574C361.103 74.7302 360.284 67.1306 334.5 67.2696C324.118 67.3256 315.209 96.3751 305 94.8146C294.878 93.2673 289.962 50.9623 278.5 49.3003C271.453 48.2786 260.512 58.0754 252.5 57.4583C243.896 56.7957 238 62.7575 227 72.0574C213.321 83.6219 199 67.8162 185 58.6093C153.5 41.8331 172.578 78.7694 153.5 79.169C135.06 79.5553 121 35.4327 113 56.6768C79.9999 54.1219 116.747 83.0527 97.9999 83.436C90.6147 83.587 89.6052 72.2475 79.9999 72.0574C72.2012 71.9031 66.8393 57.9857 59.9999 58.3227C50.6988 58.781 43.2886 59.9902 40.4999 62.7575C36.8315 66.3977 24.9999 65.657 35.9999 83.436C35.9999 83.436 41.3949 93.4224 42.4999 100.148C44.4259 111.872 15.0169 94.155 9.49988 86.9918C24.4999 75.9688 10.0047 69.662 9.49988 58.5675Z" fill="#F5F5F5"/>
<path d="M9.4999 57.0448C8.5098 35.8822 4.5 3.07494 4.5 3.07494H1445V50.2364C1445 50.2364 1443 101.634 1437.01 57.0448C1432.64 59.6023 1418.28 91.6806 1409.5 92.2972C1397.48 93.1408 1404.73 52.3426 1395.5 50.2364C1389.26 48.8121 1376.7 56.35 1363.5 56.1005C1339.1 55.6393 1334.31 58.4666 1328.5 61.223C1323.21 63.7323 1317.06 66.1828 1294.5 66.0397C1280.57 65.9514 1260.33 93.7074 1255.5 92.2972C1245.39 89.3441 1258.91 56.1858 1231 57.0448C1200.54 57.982 1210.84 63.7426 1192.5 64.201C1182.03 64.4627 1205.26 52.5257 1192.5 50.7985C1182.91 49.5005 1138.79 58.3335 1123.5 58.2375C1106.56 58.131 1107 84.6621 1098 86.0724C1086.54 87.8673 1066.2 64.6184 1045 64.201C1028.18 63.8697 1016.91 18.637 1016.91 60.8274C1011.8 59.6276 1005.92 58.5104 992.102 58.2375C957.457 57.5533 972.174 63.665 966.953 67.398C964.701 69.0085 952.437 61.6282 943.5 70.1645C891 120.309 917.218 67.1504 915.229 64.2856C935 26.2451 907.511 68.095 887.672 59.1817C849 41.8071 807.538 72.9312 829 83.6517C850.462 94.3722 807.5 115.467 807.5 60.6751C803.302 59.4301 797.002 58.4151 783.5 58.2375C763.702 57.977 752.994 48.7642 745.5 50.7985C737.678 52.9219 722.945 77.5308 714.5 66.0397C685 25.8992 680.354 68.7731 676 66.0397C671.314 76.0202 674 73.3652 660 86.0724C646.875 97.9853 632.382 58.1076 626 60.1841C621.503 61.6473 614.814 62.8219 597.5 62.6604C579.665 62.494 534 29.0117 566.5 58.5789C553 70.1646 552.969 52.2926 525 52.7212C504.667 53.0328 500.598 55.0827 496 57.0855C470.5 60.1841 489.441 42.1675 470.5 42.4987C456.804 42.7383 444.539 60.6205 435.5 59.7045C411.5 81.2309 410.817 56.676 391 57.0448C376.876 57.3076 370.944 68.7649 367.5 70.1646C361.103 72.764 360.284 65.3729 334.5 65.5082C324.118 65.5626 315.209 93.815 305 92.2972C294.878 90.7924 289.962 49.6483 278.5 48.0319C271.453 47.0382 260.512 56.5662 252.5 55.9661C243.896 55.3216 238 61.1198 227 70.1646C213.321 81.4118 199 66.0397 185 57.0855C153.5 40.7696 172.578 76.6924 153.5 77.081C135.06 77.4566 121 34.5448 113 55.206C79.9999 52.7212 116.747 80.8581 97.9999 81.2309C90.6147 81.3778 89.6052 70.3494 79.9999 70.1646C72.2012 70.0145 66.8393 56.479 59.9999 56.8067C50.6988 57.2524 43.2887 58.4285 40.4999 61.1198C36.8315 64.6601 24.9999 63.9398 35.9999 81.2309C35.9999 81.2309 41.3949 90.9433 42.4999 97.4846C44.4259 108.886 15.0169 91.6558 9.4999 84.6891C24.4999 73.9686 10.0047 67.8349 9.4999 57.0448Z" fill="#F2E5E9"/>
<path d="M4.5 1.57494H2.8055L3.01108 3.25692L4.5 3.07494C3.01108 3.25692 3.01109 3.25701 3.01112 3.25722L3.01125 3.25828L3.01178 3.26262L3.01392 3.28021L3.02247 3.35054L3.05607 3.62819C3.08558 3.87284 3.12904 4.23474 3.18472 4.70306C3.29609 5.6397 3.45636 7.00193 3.65181 8.70296C4.04272 12.1052 4.57426 16.8618 5.13668 22.2788C6.26235 33.1206 7.50857 46.5781 8.00153 57.1149C8.14311 60.141 9.26414 62.7809 10.4963 65.1101C10.9472 65.9624 11.4306 66.8041 11.891 67.606C12.0553 67.892 12.2166 68.1729 12.3725 68.4474C12.9781 69.5139 13.5175 70.5098 13.9358 71.4846C14.7652 73.4174 15.0581 75.1253 14.4745 76.8945C13.8743 78.7142 12.2569 80.875 8.6277 83.4688L7.34568 84.385L8.32397 85.6204C9.85107 87.5487 12.8832 90.0372 16.4026 92.4655C19.9619 94.9214 24.1622 97.4126 28.1407 99.3268C32.0619 101.213 35.9646 102.637 38.8616 102.773C40.2978 102.841 41.8263 102.609 42.9009 101.575C44.036 100.484 44.2612 98.9058 43.9789 97.2347C43.3914 93.7563 41.693 89.5407 40.1992 86.28C39.4437 84.6308 38.724 83.1906 38.1929 82.1623C37.9271 81.6478 37.7082 81.2355 37.555 80.9506C37.4784 80.8081 37.4182 80.6975 37.3767 80.6217L37.329 80.5348L37.3162 80.5116L37.3127 80.5053L37.3117 80.5035L37.3114 80.5029C37.3113 80.5027 37.3112 80.5025 35.9999 81.2309L37.3112 80.5025L37.2895 80.4635L37.2655 80.4258C34.5606 76.1739 33.362 73.1812 33.0283 71.0588C32.7077 69.0196 33.1863 67.8284 33.8965 66.9851C34.6869 66.0466 35.8889 65.3815 37.3536 64.6754C37.5126 64.5988 37.6765 64.5207 37.843 64.4414C38.3975 64.1774 38.9817 63.8992 39.5152 63.6109C40.2159 63.2323 40.9395 62.7802 41.5416 62.1992C42.605 61.1729 44.779 60.2698 48.1076 59.5909C51.3622 58.927 55.4528 58.5263 60.0717 58.305C61.2596 58.2481 62.525 58.785 63.9967 59.9216C65.4329 61.0309 66.8639 62.5485 68.4294 64.2089L68.5489 64.3356C70.1188 66.0003 71.8193 67.7919 73.6442 69.1662C75.4761 70.5458 77.5775 71.6182 79.971 71.6643C84.0664 71.7431 86.3372 74.0595 88.6954 76.8004C88.8517 76.9821 89.0098 77.1681 89.1703 77.3569C91.2856 79.8454 93.8096 82.8145 98.0297 82.7306C100.501 82.6815 102.438 82.1797 103.699 80.9982C105.034 79.7473 105.277 78.0652 105.103 76.493C104.932 74.9464 104.337 73.2507 103.673 71.6142C103.352 70.8196 102.999 70.0061 102.652 69.2035L102.604 69.0924C102.238 68.2474 101.878 67.413 101.547 66.588C100.878 64.9221 100.367 63.3906 100.181 62.0446C99.9953 60.7047 100.155 59.7188 100.629 58.9881C101.096 58.2679 102.042 57.5299 104.004 57.0531C105.978 56.5734 108.836 56.3967 112.887 56.7018L113.997 56.7853L114.399 55.7476C115.361 53.2628 116.315 52.0185 117.123 51.4706C117.808 51.0061 118.537 50.9398 119.544 51.3497C120.636 51.7938 121.921 52.7598 123.421 54.2212C124.902 55.664 126.484 57.4802 128.188 59.5027C128.685 60.0932 129.192 60.701 129.709 61.3203C132.691 64.8934 135.989 68.8454 139.512 72.029C143.628 75.7488 148.332 78.6866 153.53 78.5807C156.163 78.5271 158.262 77.8537 159.918 76.6566C161.563 75.467 162.65 73.847 163.415 72.0998C164.174 70.3646 164.643 68.4406 165.016 66.5757C165.179 65.7598 165.32 64.9835 165.456 64.2282C165.646 63.1763 165.829 62.1651 166.056 61.1444C166.836 57.6333 167.873 55.4572 169.989 54.6799C171.094 54.2742 172.689 54.1668 175.051 54.7066C177.398 55.2433 180.401 56.397 184.249 58.386C186.868 60.0639 189.489 61.9622 192.157 63.8934C192.99 64.4969 193.828 65.1036 194.672 65.7078C198.202 68.2363 201.813 70.705 205.444 72.5394C209.075 74.3738 212.826 75.6257 216.636 75.6251C220.489 75.6244 224.281 74.3422 227.953 71.3232C229.11 70.3714 230.205 69.4614 231.247 68.595C235.217 65.2936 238.426 62.6259 241.454 60.697C245.205 58.3081 248.509 57.1713 252.388 57.4619C254.691 57.6344 257.105 57.0767 259.448 56.2553C261.797 55.4314 264.209 54.2919 266.503 53.2075L266.505 53.2063C268.832 52.1063 271.033 51.066 273.084 50.3537C275.149 49.636 276.883 49.3187 278.29 49.5172C279.28 49.6568 280.325 50.2399 281.44 51.3837C282.556 52.5274 283.651 54.1398 284.734 56.1345C286.904 60.1294 288.873 65.3642 290.845 70.7242C290.973 71.0725 291.101 71.4213 291.229 71.7703C293.052 76.734 294.889 81.7339 296.861 85.6483C297.918 87.7454 299.053 89.6121 300.302 91.0234C301.542 92.425 303.02 93.5194 304.779 93.7809C308.082 94.2719 311.018 92.322 313.517 89.8194C316.061 87.2723 318.533 83.7649 320.915 80.3507L321.194 79.9506C323.518 76.6189 325.768 73.3932 328.043 70.9533C330.456 68.3655 332.58 67.0182 334.508 67.0081C347.233 66.9414 353.71 68.7283 357.767 70.1735C358.387 70.3945 358.986 70.622 359.561 70.8407C360.791 71.3086 361.916 71.7363 362.926 71.9746C364.59 72.367 366.16 72.3281 368.065 71.5542C368.725 71.2859 369.343 70.825 369.899 70.3459C370.469 69.8546 371.076 69.252 371.705 68.6159C371.851 68.4682 372 68.3177 372.15 68.1648C373.321 66.9765 374.637 65.6407 376.207 64.3297C379.718 61.3972 384.414 58.6676 391.028 58.5445C395.634 58.4588 399.119 59.8103 402.173 61.622C403.717 62.5382 405.145 63.5678 406.577 64.6122L406.809 64.7816C408.147 65.7578 409.508 66.7508 410.907 67.5937C413.921 69.4086 417.257 70.6171 421.496 69.7908C425.53 69.0042 430.178 66.4106 436.034 61.2372C438.569 61.2814 441.141 60.1866 443.617 58.7288C445.981 57.3372 448.473 55.4787 450.995 53.5977C451.379 53.3116 451.763 53.0249 452.148 52.7393C455.102 50.5463 458.119 48.3804 461.224 46.7439C464.325 45.1091 467.423 44.0528 470.526 43.9985C475.073 43.919 476.863 44.9519 477.722 46.0159C478.182 46.5869 478.484 47.2942 478.719 48.1728C478.884 48.7898 478.995 49.3936 479.117 50.06C479.179 50.396 479.244 50.748 479.32 51.1257C479.745 53.2423 480.468 55.7639 483.157 57.3574C485.712 58.8716 489.738 59.3574 496.181 58.5745L496.398 58.5481L496.599 58.4607C496.739 58.3995 496.879 58.3385 497.018 58.2777C499.143 57.348 501.168 56.4628 504.885 55.7417C508.893 54.9644 514.893 54.3763 525.023 54.221C538.04 54.0215 544.746 57.8719 549.794 60.7709C550.01 60.8946 550.222 61.0165 550.432 61.1363C552.976 62.5902 555.446 63.9438 558.228 63.9908C561.096 64.0394 563.978 62.72 567.477 59.7172L568.765 58.6117L567.509 57.4693C563.452 53.7784 560.643 51.0967 558.854 49.2227C558.785 49.1504 558.718 49.0795 558.652 49.01C559.731 49.492 561.012 50.105 562.464 50.8165C563.489 51.3185 564.591 51.8658 565.753 52.4428C569.983 54.5438 575.006 57.0388 579.969 59.1726C586.239 61.8679 592.691 64.1156 597.486 64.1603C614.847 64.3223 621.732 63.1501 626.464 61.6105C626.471 61.6084 626.486 61.6037 626.523 61.6062C626.564 61.6089 626.64 61.6212 626.756 61.6653C627 61.7584 627.343 61.9616 627.789 62.3369C628.686 63.0911 629.744 64.3185 630.962 65.9321C632.168 67.5304 633.469 69.4206 634.865 71.4532L634.94 71.5615C636.307 73.5517 637.758 75.6652 639.264 77.7071C642.298 81.8213 645.687 85.8414 649.262 88.039C651.074 89.1526 653.032 89.8605 655.081 89.7944C657.159 89.7273 659.15 88.8699 661.008 87.1831C661.566 86.6768 662.098 86.1942 662.606 85.7335C668.405 80.4749 671.055 78.0713 672.684 75.9458C673.609 74.738 674.204 73.628 674.853 72.2231C675.129 71.6269 675.391 71.0334 675.683 70.3726C676.031 69.5854 676.42 68.7027 676.926 67.6059C677.156 67.5513 677.365 67.4644 677.548 67.3638C678.127 67.0455 678.574 66.5221 678.91 66.0565C679.599 65.1038 680.312 63.682 681.044 62.2228L681.045 62.2206L681.057 62.196C682.59 59.1403 684.394 55.544 686.877 53.0761C688.1 51.8607 689.432 50.9807 690.909 50.5644C692.368 50.1532 694.082 50.1621 696.145 50.9018C700.359 52.4129 705.958 56.9502 713.291 66.928C714.487 68.5548 715.874 69.647 717.447 70.1892C719.019 70.731 720.632 70.6741 722.196 70.2531C725.246 69.4322 728.347 67.1577 731.219 64.6554C733.013 63.0924 734.844 61.3204 736.581 59.64C737.619 58.6363 738.623 57.6653 739.564 56.7909C740.857 55.5912 742.056 54.5473 743.154 53.7454C744.268 52.9307 745.178 52.4401 745.893 52.2461C747.405 51.8357 749.185 51.9643 751.457 52.5226C753.335 52.9841 755.403 53.6984 757.801 54.5262C758.318 54.7049 758.851 54.8889 759.401 55.0768C765.535 57.1737 773.341 59.6039 783.48 59.7373C795.79 59.8993 801.977 60.7604 806.006 61.8154C806.151 75.0564 808.824 83.9896 812.628 89.7181C816.562 95.6414 821.69 98.0968 826.255 98.23C830.684 98.3593 834.783 96.2452 836.095 92.8272C836.772 91.0648 836.63 89.0988 835.531 87.2296C834.457 85.4015 832.511 83.729 829.67 82.3098C827.195 81.0736 825.799 79.6298 825.136 78.1847C824.483 76.7591 824.457 75.1437 825.089 73.3636C826.384 69.7103 830.392 65.5912 836.514 62.1924C848.675 55.4404 868.21 52.0823 887.057 60.5499C892.566 63.0251 898.481 61.9181 903.697 59.7777C908.616 57.759 913.167 54.714 916.527 52.4662C916.735 52.3271 916.938 52.1911 917.137 52.0585C918.438 51.1898 919.481 50.5088 920.278 50.0616C920.051 50.7726 919.688 51.707 919.161 52.9079C918.081 55.3736 916.367 58.8437 913.898 63.5938L913.481 64.3972L913.837 64.9103C913.833 64.9765 913.825 65.0653 913.81 65.1799C913.753 65.6193 913.618 66.2399 913.41 67.0397C913.109 68.1975 912.69 69.6005 912.219 71.1735C912.04 71.7724 911.854 72.3959 911.664 73.0399C910.325 77.5798 908.785 83.1749 908.924 87.1556C908.992 89.1084 909.478 91.198 911.169 92.3393C912.881 93.4944 915.184 93.2522 917.781 92.1922C923.034 90.0477 931.426 83.7709 944.536 71.2492C948.532 67.4329 953.279 67.1211 957.542 67.6717C959.173 67.8825 960.665 68.2087 962.022 68.5055C962.459 68.6011 962.883 68.6936 963.292 68.7782C964.099 68.9451 964.894 69.0892 965.584 69.1269C966.208 69.161 967.101 69.1364 967.826 68.6181C968.714 67.9829 969.27 67.2207 969.543 66.3555C969.801 65.5371 969.764 64.7486 969.707 64.1525C969.682 63.8997 969.658 63.6942 969.636 63.5143C969.598 63.1972 969.569 62.9597 969.57 62.6832C969.571 62.3413 969.63 62.1568 969.732 62.0074C969.99 61.631 970.947 60.8726 974.513 60.3387C977.959 59.8228 983.432 59.5665 992.073 59.7372C1005.8 60.0082 1011.57 61.1143 1016.56 62.2876L1018.41 62.7208V60.8274C1018.41 55.5754 1018.58 51.7379 1018.91 49.0268C1019.08 47.6716 1019.28 46.6325 1019.5 45.8564C1019.73 45.0633 1019.95 44.638 1020.11 44.4329C1020.14 44.396 1020.16 44.3707 1020.18 44.3537C1020.24 44.3698 1020.37 44.4146 1020.57 44.5396C1021.28 44.9861 1022.24 45.9822 1023.48 47.5126C1024.23 48.4334 1025.05 49.5235 1025.95 50.7001C1027.85 53.2164 1030.06 56.1289 1032.42 58.6303C1035.89 62.3011 1040.12 65.6051 1044.97 65.7007C1055.1 65.9002 1065.15 71.5764 1074.37 77.2439C1075.17 77.7388 1075.97 78.2341 1076.76 78.725C1080.44 81.0037 1083.96 83.1892 1087.19 84.8114C1091.07 86.7609 1094.87 88.0816 1098.23 87.5544C1101.24 87.0837 1103.2 84.5611 1104.71 81.8409C1105.71 80.0343 1106.66 77.8411 1107.63 75.624C1108.12 74.477 1108.62 73.3236 1109.13 72.214C1112.28 65.3959 1116.04 59.6906 1123.49 59.7374C1130.96 59.7844 1145.06 57.7535 1158.61 55.8026L1160.35 55.552C1167.43 54.5343 1174.29 53.5584 1179.99 52.9173C1185.76 52.2684 1190.12 51.99 1192.3 52.2849C1193.81 52.4889 1194.51 52.8165 1194.79 53.0468C1194.91 53.1422 1194.93 53.1983 1194.93 53.2068C1194.94 53.2207 1194.95 53.2783 1194.93 53.4185C1194.88 53.75 1194.64 54.2713 1194.13 54.9979C1193.63 55.6967 1192.97 56.4469 1192.25 57.2319C1192.03 57.4816 1191.79 57.7389 1191.54 57.998C1191.06 58.5222 1190.56 59.0537 1190.13 59.5445C1189.51 60.2626 1188.87 61.0643 1188.51 61.8373C1188.33 62.2295 1188.16 62.7506 1188.21 63.3289C1188.26 63.9797 1188.58 64.5509 1189.1 64.955C1189.56 65.3163 1190.12 65.4938 1190.65 65.5888C1191.19 65.6867 1191.83 65.7183 1192.54 65.7005C1197.2 65.584 1200.14 65.1288 1202.39 64.4594C1204.1 63.9551 1205.41 63.321 1206.67 62.714C1207.06 62.5273 1207.44 62.3432 1207.83 62.1662C1211.1 60.6681 1215.92 59.0096 1231.05 58.544C1237.71 58.3389 1241.64 60.159 1244.08 62.7957C1246.59 65.4975 1247.77 69.2897 1248.45 73.4792C1248.78 75.5602 1248.98 77.6795 1249.17 79.7573L1249.19 79.9348C1249.37 81.9295 1249.56 83.9019 1249.85 85.6709C1250.16 87.4814 1250.6 89.2125 1251.38 90.6213C1252.17 92.0733 1253.35 93.2322 1255.08 93.737C1255.76 93.937 1256.44 93.8417 1257.01 93.6698C1257.59 93.4951 1258.18 93.2036 1258.76 92.8575C1259.92 92.1657 1261.24 91.129 1262.65 89.9144C1264.37 88.4387 1266.34 86.592 1268.45 84.6218C1269.79 83.3676 1271.18 82.0633 1272.6 80.7727C1276.29 77.4082 1280.2 74.0584 1284.03 71.5594C1287.9 69.0354 1291.46 67.5205 1294.49 67.5397C1305.82 67.6115 1313.1 67.0338 1318.24 66.102C1323.43 65.1625 1326.42 63.8679 1329.14 62.5784C1329.39 62.4607 1329.64 62.3435 1329.88 62.2269C1332.5 60.975 1334.96 59.798 1339.32 58.9261C1344.14 57.9632 1351.32 57.3705 1363.47 57.6003C1370.33 57.73 1376.98 55.8364 1382.54 54.1643C1382.89 54.0603 1383.23 53.9573 1383.56 53.8558C1385.97 53.1303 1388.12 52.4786 1390.05 52.0512C1392.27 51.5584 1393.95 51.4205 1395.17 51.6988C1395.73 51.8278 1396.34 52.2779 1396.94 53.3944C1397.54 54.5141 1398.03 56.1053 1398.42 58.1045C1399.09 61.5302 1399.43 65.7995 1399.78 70.2445C1399.84 70.9907 1399.9 71.7419 1399.96 72.4948C1400.38 77.6435 1400.9 82.897 1402.11 86.8199C1402.71 88.7815 1403.54 90.563 1404.73 91.8421C1405.98 93.1808 1407.61 93.9335 1409.6 93.7935C1411.12 93.6871 1412.59 92.9245 1413.93 91.9057C1415.29 90.872 1416.67 89.4674 1418.03 87.8568C1420.76 84.6348 1423.56 80.4093 1426.18 76.1908C1427.5 74.0753 1428.78 71.9466 1429.98 69.9317L1430.2 69.5764C1431.33 67.6896 1432.39 65.9141 1433.37 64.3367C1434.34 62.7802 1435.21 61.4432 1435.96 60.4011C1436.54 64.4235 1437.09 67.5352 1437.61 69.8759C1437.93 71.3353 1438.24 72.518 1438.55 73.4462C1438.84 74.3472 1439.17 75.112 1439.56 75.6603C1439.9 76.1337 1440.71 77.0007 1441.91 76.6709C1442.41 76.534 1442.76 76.2265 1442.98 75.9746C1443.21 75.7167 1443.38 75.423 1443.52 75.1469C1444.03 74.0962 1444.42 72.4279 1444.73 70.6155C1445.37 66.8963 1445.81 61.799 1446.09 57.6727C1446.23 55.6009 1446.33 53.7582 1446.4 52.4333C1446.43 51.7707 1446.46 51.2372 1446.47 50.8688C1446.48 50.6846 1446.49 50.5417 1446.49 50.4445L1446.5 50.3336L1446.5 50.305L1446.5 50.2975V50.2955C1446.5 50.295 1446.5 50.2947 1445 50.2364L1446.5 50.2947L1446.5 50.2656V50.2364V3.07494V1.57494H1445H4.5ZM1020.22 44.3223C1020.22 44.3228 1020.22 44.3248 1020.21 44.3274C1020.22 44.3231 1020.22 44.3218 1020.22 44.3223Z" stroke="#F9C4D4" stroke-opacity="0.4" stroke-width="3"/>
<path d="M1 56.715C0.00990844 35.5524 0.999876 0 0.999876 0H1444V47.1615C1444 47.1615 1442 98.5595 1436.01 53.9698C1431.64 56.5273 1417.28 88.6057 1408.5 89.2223C1396.48 90.0659 1403.73 49.2677 1394.5 47.1615C1388.26 45.7372 1375.7 53.2751 1362.5 53.0256C1338.1 52.5644 1333.31 55.3917 1327.5 58.1481C1322.21 60.6574 1316.06 63.1079 1293.5 62.9648C1279.57 62.8765 1259.33 90.6325 1254.5 89.2223C1244.39 86.2691 1257.91 53.1109 1230 53.9698C1199.54 54.907 1209.84 60.6676 1191.5 61.126C1181.03 61.3878 1204.26 49.4508 1191.5 47.7236C1181.91 46.4256 1137.79 55.2586 1122.5 55.1625C1105.56 55.0561 1106 81.5872 1097 82.9975C1085.54 84.7924 1065.2 61.5435 1044 61.126C1027.18 60.7948 1015.91 15.562 1015.91 57.7524C1010.8 56.5527 1004.92 55.4354 991.102 55.1625C956.458 54.4784 971.174 60.5901 965.953 64.3231C963.701 65.9335 951.437 58.5533 942.5 67.0896C890 117.234 916.218 64.0754 914.229 61.2106C934 23.1701 906.511 65.0201 886.672 56.1067C848 38.7322 806.538 69.8562 828 80.5767C849.462 91.2972 806.5 112.392 806.5 57.6002C802.303 56.3552 796.002 55.3402 782.5 55.1625C762.702 54.902 751.994 45.6892 744.5 47.7236C736.678 49.847 721.945 74.4559 713.5 62.9648C684 22.8243 679.354 65.6981 675 62.9648C670.314 72.9453 673 70.2902 659 82.9975C645.875 94.9103 631.382 55.0327 625 57.1091C620.503 58.5723 613.814 59.747 596.5 59.5855C578.665 59.419 533 25.9367 565.5 55.5039C552 67.0896 551.969 49.2176 524 49.6463C503.667 49.9579 499.598 52.0078 495 54.0105C469.5 57.1091 488.441 39.0926 469.5 39.4238C455.804 39.6633 443.539 57.5456 434.5 56.6295C410.5 78.156 409.817 53.6011 390 53.9698C375.876 54.2326 369.944 65.69 366.5 67.0896C360.103 69.6891 359.284 62.298 333.5 62.4332C323.118 62.4877 314.209 90.74 304 89.2223C293.878 87.7175 288.962 46.5733 277.5 44.957C270.453 43.9633 259.512 53.4912 251.5 52.8911C242.896 52.2466 237 58.0449 226 67.0896C212.321 78.3368 198 62.9648 184 54.0105C152.5 37.6947 171.578 73.6175 152.5 74.0061C134.06 74.3817 120 31.4699 112 52.1311C78.9999 49.6463 115.747 77.7832 96.9999 78.156C89.6147 78.3028 88.6052 67.2745 78.9999 67.0896C71.2012 66.9396 65.8393 53.404 58.9999 53.7318C49.6988 54.1775 42.2886 55.3535 39.4999 58.0449C35.8315 61.5852 23.9999 60.8648 34.9999 78.156C34.9999 78.156 40.3949 87.8683 41.4999 94.4096C43.4259 105.812 14.0169 88.5809 8.49988 81.6142C23.4999 70.8937 1.50482 67.5051 1 56.715Z" fill="#F2E5E9"/>
</svg>
