<?xml version="1.0" encoding="UTF-8"?><svg xmlns="http://www.w3.org/2000/svg" xmlns:xlink="http://www.w3.org/1999/xlink" viewBox="0 0 209.45 212.42"><defs><style>.cls-1{clip-path:url(#clippath);}.cls-2{fill:none;}.cls-2,.cls-3,.cls-4,.cls-5,.cls-6,.cls-7,.cls-8,.cls-9{stroke-width:0px;}.cls-3{fill:url(#Dégradé_sans_nom_128);}.cls-3,.cls-4{opacity:.7;}.cls-3,.cls-4,.cls-8{mix-blend-mode:multiply;}.cls-4{fill:url(#Dégradé_sans_nom_124);}.cls-10{isolation:isolate;}.cls-5{filter:url(#drop-shadow-1);}.cls-5,.cls-6{fill:#f2e6e9;}.cls-7{fill:#e6c2c4;}.cls-8{fill:url(#Dégradé_sans_nom_141);opacity:.5;}.cls-9{fill:url(#Dégradé_sans_nom_59);}</style><clipPath id="clippath"><path class="cls-2" d="m199.85,49.7c-.35.02-.64-.08-.87-.05-.67.09-1.33.16-2,.21-1.83.13-5.15.34-6.63.19-3.3-.32-5.7-3.58-4.69-6.74.12-.38.28-.72.49-.99,1.45-1.9,10.25-11.67,4.65-21.53-5.6-9.86-19.06-1.6-19.06-1.6,0,0-6.7,5.14-6.82-2.05-.12-7.19-3.02-16.45-8.48-17.1-5.47-.65-12.55,6.85-15.22,18.77-1.04,4.63-2.5,11.96-3.87,19.38-1.1,1.15-1.7,2.54-1.76,3.92-7.67-4.15-16.22-6.88-25.29-7.87-1.76-1.29-3.55-2.53-5.39-3.67-6.3-3.93-18.99-6.93-21.27,3.4-.19.84-.25,1.71-.23,2.59-11.9,3.44-22.48,9.98-30.82,18.7-6.24-.75-13.55,1.86-14.8,8.66-.58,3.16.61,6.77,1.99,10.1-4.11,8.86-6.41,18.71-6.41,29.12,0,.47.03.93.04,1.39-2.68.16-5.35,1.15-7.79,3.28-6.59,5.75-1.34,15.65.86,22.3.96,2.9,1.92,5.82,2.99,8.7-5.11,2.25-10.23,4.56-12.95,5.94-26.29,13.34-15.49,23.23-6.38,21.87.34-.05.64.02.87-.03.66-.14,1.31-.27,1.97-.38,1.81-.29,5.11-.77,6.59-.75,3.32.04,5.99,3.08,5.24,6.31-.09.39-.22.74-.4,1.03-1.28,2.02-12.1,12.84-5.69,22.19,6.42,9.35,22.01-.37,22.01-.37,0,0,6.24-5.69,6.97,1.47.73,7.15,4.4,16.14,9.9,16.32,5.5.18,11.92-7.89,13.57-19.99.63-4.59,1.44-11.81,2.16-19.15.28-.2.55-.41.8-.65,1.62-1.5,2.33-3.57,2.01-5.46.62.26,1.24.5,1.87.74,5.45,6.6,11.93,13.93,20.45,11.34,4.28-1.3,5.91-3.83,6.15-6.85,15.53-.42,29.77-5.95,41.13-14.97,7.12,1.58,15.2-.59,16.71-8.72.55-2.98.25-6.26-.53-9.56,6.4-10.5,10.09-22.83,10.09-36.02,0-3.69-.3-7.32-.85-10.85,4.37-2.01,7.85-5.62,8.73-10.69.36-2.05.12-4.16-.38-6.24,4.84-1.67,9.53-3.33,12.13-4.38,27.33-11.07,17.41-21.83,8.22-21.25Z"/></clipPath><radialGradient id="Dégradé_sans_nom_59" cx="84.85" cy="84.1" fx="84.85" fy="84.1" r="88.72" gradientUnits="userSpaceOnUse"><stop offset=".56" stop-color="#cee6e9"/><stop offset="1" stop-color="#a2c4c4"/></radialGradient><radialGradient id="Dégradé_sans_nom_141" cx="84.85" cy="84.1" fx="84.85" fy="84.1" r="88.72" gradientUnits="userSpaceOnUse"><stop offset=".56" stop-color="#cee6e9"/><stop offset="1" stop-color="#a2d0d1"/></radialGradient><filter id="drop-shadow-1" filterUnits="userSpaceOnUse"><feOffset dx="7" dy="7"/><feGaussianBlur result="blur" stdDeviation="5"/><feFlood flood-color="#72a4a5" flood-opacity=".25"/><feComposite in2="blur" operator="in"/><feComposite in="SourceGraphic"/></filter><linearGradient id="Dégradé_sans_nom_124" x1="32.98" y1="179.06" x2="48.68" y2="160.35" gradientUnits="userSpaceOnUse"><stop offset="0" stop-color="#e6c2c4" stop-opacity="0"/><stop offset=".16" stop-color="#e6c2c4" stop-opacity=".22"/><stop offset=".38" stop-color="#e6c2c4" stop-opacity=".49"/><stop offset=".59" stop-color="#e6c2c4" stop-opacity=".71"/><stop offset=".76" stop-color="#e6c2c4" stop-opacity=".87"/><stop offset=".91" stop-color="#e6c2c4" stop-opacity=".97"/><stop offset="1" stop-color="#e6c2c4"/></linearGradient><linearGradient id="Dégradé_sans_nom_128" x1="162.33" y1="54.91" x2="178.38" y2="36.53" gradientUnits="userSpaceOnUse"><stop offset="0" stop-color="#e6c2c4"/><stop offset="1" stop-color="#e6c2c4" stop-opacity="0"/></linearGradient></defs><g class="cls-10"><g id="Calque_2"><g id="Calque_1-2"><g class="cls-1"><path class="cls-6" d="m44.43,132.33s-21.2,9-27.91,12.41c-26.29,13.34-15.49,23.23-6.38,21.87.34-.05.64.02.87-.03.66-.14,1.31-.27,1.97-.38,1.81-.29,5.11-.77,6.59-.75,3.32.04,5.98,3.08,5.24,6.31-.09.39-.22.74-.4,1.03-1.28,2.02-12.1,12.84-5.69,22.19,6.42,9.35,22.01-.37,22.01-.37,0,0,6.24-5.69,6.97,1.47.73,7.15,4.4,16.14,9.9,16.32,5.5.18,11.92-7.89,13.57-19.99,1.65-12.1,4.58-42.36,3.85-45.3s-21.09-17.42-21.09-17.42l-9.5,2.63Z"/><path class="cls-6" d="m162.78,80.95s21.88-7.17,28.86-10c27.33-11.07,17.41-21.83,8.22-21.25-.35.02-.64-.08-.87-.05-.67.09-1.33.16-2,.21-1.83.13-5.15.34-6.63.19-3.3-.32-5.7-3.58-4.69-6.74.12-.38.28-.72.49-.99,1.45-1.9,13.15-11.76,7.55-21.63-5.6-9.86-21.96-1.5-21.96-1.5,0,0-6.7,5.14-6.82-2.05-.12-7.19-3.02-16.45-8.48-17.1s-12.55,6.85-15.22,18.77c-2.67,11.92-8.16,41.82-7.68,44.81s19.54,19.15,19.54,19.15l9.69-1.81Z"/><circle class="cls-9" cx="102.69" cy="103.13" r="69.31"/><circle class="cls-8" cx="102.69" cy="103.13" r="69.31"/><path class="cls-5" d="m177.68,69.57c-4.91-13.83-14.73-25.5-27.39-32.86-3.76-2.19-9.35-1.85-12.61,1.16-3.01,2.78-2.81,7.18.85,9.31,9.17,5.33,16.02,13.14,20.38,22.79.69,1.54,1.33,3.1,1.89,4.69.16.46.86,2.78.91,2.82,0,.04.02.07.02.12-12.53-10.61-25.01-21.5-37.61-32.12-6.15-5.19-12.37-10.63-19.21-14.9-6.3-3.93-18.99-6.93-21.27,3.4-1.57,7.1,4.89,16.07,8.34,21.84,5.14,8.61,10.75,16.93,16.36,25.23,10.59,15.67,22.35,31.17,30.75,48.18,1.05,2.13,2.04,4.34,2.9,6.59-3-2.85-5.98-5.72-8.96-8.6-13.95-13.48-27.73-27.12-41.63-40.64-5.93-5.77-11.88-11.54-17.91-17.2-5.34-5.01-11.12-11.49-18.32-13.58-6.61-1.93-15.96.37-17.38,8.14-.86,4.69,2.19,10.41,3.96,14.67,4.4,10.61,9.69,20.85,14.97,31.04,4.41,8.52,8.92,17,13.31,25.53-1.58-1.67-3.15-3.34-4.73-5.01-5.84-6.21-11.68-12.44-17.39-18.77-5.61-6.22-14.98-9.95-22.3-3.56-6.59,5.75-1.34,15.65.86,22.3,1.97,5.94,3.93,11.96,6.81,17.54,6.19,11.99,16.58,19.84,28.24,26.15,3.85,2.08,9.28,1.92,12.61-1.16,2.93-2.7,2.9-7.28-.85-9.31-8.85-4.79-17.33-10.31-22.34-19.31-1.82-3.27-3.26-6.74-4.56-10.25,1.59,1.69,3.16,3.4,4.75,5.09,7.48,7.95,15,15.86,22.44,23.84,6.37,6.83,13.93,19.87,24.89,16.55,10.77-3.27,4.8-14.38,1.86-21.31-7.16-16.84-16.06-32.94-24.51-49.15-4.33-8.31-8.64-16.63-12.64-25.11-.41-.88-.81-1.77-1.22-2.65,4.62,4.2,9.28,8.37,13.72,12.69,11.78,11.45,23.48,22.99,35.25,34.46,8.88,8.65,17.6,17.82,27.19,25.7,7.22,5.93,22.21,6.23,24.33-5.16,1.5-8.09-3.29-18.32-6.91-25.44-8.24-16.21-19.33-31.07-29.49-46.09-4.78-7.07-9.55-14.16-14.08-21.4,8.14,6.93,16.13,14.03,24.24,21,4,3.43,8.07,6.75,12.16,10.07.24.2.37.3.44.36,0,0,.1.1.72.64.88.76,1.77,1.52,2.67,2.25,3.35,2.73,6.69,4.13,11.13,3.99,7.52-.24,15.16-4.63,16.54-12.52.7-4.01-.88-8.27-2.2-12.01Z"/><path class="cls-7" d="m53.57,162.67c-.63-.53-1.25-1.06-1.86-1.61-.25-.23-.51-.45-.76-.68-.59-.55-1.18-1.11-1.76-1.67-.47-.46-.93-.94-1.39-1.42-.1-.11-.21-.22-.31-.32-3.85-4.04-7.22-8.53-10.05-13.38-6.48,2.59-14.23,5.85-19.29,8.53-10.14,5.36-8.74,7.81-6.87,7.81s22.49-5.01,25.98-5.36c3.5-.35,7.92.35,6.18,5.24-1.75,4.89-10.95,14.1-8.97,21.44s10.86,3.68,11.88,3.15c3.38-1.75,6.81-5.08,8.63-6.6.94-.79,2.36-.1,2.32,1.13-.11,3.64-1.07,10.65-.47,12.82.82,2.91,3.78,3.69,4.87,1.43.18-.38,2.94-4,2.59-13.08-.1-2.69-.17-6.32-.2-10.1-3.59-2.05-6.99-4.4-10.16-7.02-.12-.1-.23-.2-.35-.29Z"/><path class="cls-7" d="m151.91,44.28c.05.04.1.09.15.13.84.68,1.66,1.38,2.46,2.09.19.17.38.33.57.5.7.64,1.38,1.29,2.06,1.95.25.25.51.48.76.73.53.54,1.04,1.09,1.56,1.65,5.36,5.75,9.79,12.39,13.04,19.67,6.49-1.99,14.01-4.45,19.05-6.59,10.55-4.48,9.37-7.04,7.51-7.2-1.86-.16-22.83,3.08-26.34,3.14-3.51.05-7.86-1.02-5.71-5.75,2.16-4.73,12.11-13.12,10.76-20.6-1.35-7.48-10.51-4.58-11.57-4.14-3.52,1.45-7.22,4.48-9.16,5.85-1,.7-2.36-.1-2.22-1.32.42-3.62,1.97-10.52,1.55-12.73-.57-2.97-3.45-3.99-4.73-1.84-.21.36-3.26,3.73-3.69,12.82-.11,2.26-.3,5.19-.52,8.3,1.54,1.06,3.04,2.19,4.49,3.36,0,0,0-.01-.01-.02Z"/><path class="cls-4" d="m53.25,162.99c-.63-.53-1.25-1.07-1.87-1.62-.26-.23-.51-.45-.76-.68-.6-.55-1.18-1.11-1.76-1.68-.47-.47-.94-.94-1.4-1.42-.1-.11-.21-.22-.31-.32-3.85-4.05-7.24-8.54-10.07-13.41-6.49,2.6-14.26,5.87-19.34,8.55-10.16,5.37-8.76,7.82-6.89,7.82s22.54-5.02,26.04-5.37c3.5-.35,7.94.35,6.19,5.25-1.75,4.9-10.98,14.13-8.99,21.49,1.99,7.36,10.88,3.68,11.91,3.15,3.39-1.75,6.83-5.09,8.65-6.62.94-.79,2.36-.1,2.33,1.13-.11,3.65-1.07,10.68-.47,12.84.82,2.92,3.78,3.69,4.88,1.44.18-.38,2.94-4,2.59-13.11-.1-2.7-.17-6.34-.2-10.12-3.6-2.05-7.01-4.41-10.19-7.03-.12-.1-.23-.2-.35-.29Z"/><path class="cls-3" d="m151.81,44.33c.05.04.1.09.15.13.84.68,1.66,1.38,2.47,2.1.19.17.38.33.57.51.7.64,1.39,1.29,2.06,1.96.25.25.51.49.76.74.53.54,1.05,1.09,1.56,1.65,5.37,5.77,9.81,12.41,13.07,19.71,6.5-1.99,14.04-4.46,19.1-6.61,10.58-4.49,9.39-7.05,7.53-7.21-1.86-.16-22.88,3.09-26.4,3.14-3.52.05-7.88-1.02-5.72-5.76,2.16-4.74,12.14-13.15,10.78-20.65-1.35-7.5-10.53-4.59-11.6-4.15-3.52,1.46-7.24,4.49-9.18,5.86-1,.7-2.36-.1-2.22-1.32.42-3.62,1.98-10.55,1.55-12.76-.57-2.98-3.46-4-4.74-1.84-.22.36-3.27,3.74-3.7,12.85-.11,2.27-.3,5.2-.52,8.32,1.55,1.06,3.04,2.19,4.5,3.37,0,0,0-.01-.01-.02Z"/></g></g></g></g></svg>