<?xml version="1.0" encoding="UTF-8"?><svg id="Calque_2" xmlns="http://www.w3.org/2000/svg" xmlns:xlink="http://www.w3.org/1999/xlink" viewBox="0 0 343.29 224.25"><defs><style>.cls-1{clip-path:url(#clippath);}.cls-2{fill:none;}.cls-2,.cls-3,.cls-4,.cls-5,.cls-6,.cls-7{stroke-width:0px;}.cls-3{filter:url(#drop-shadow-1);}.cls-3,.cls-4{fill:#f2e6e9;}.cls-5{fill:#e6c2c4;}.cls-6{fill:#e9563a;}.cls-7{fill:url(#Dégradé_sans_nom_59);}</style><clipPath id="clippath"><path class="cls-2" d="m269.5,60.66c-.35.02-.64-.08-.87-.05-.67.09-1.33.16-2,.21-1.83.13-5.15.34-6.63.19-3.3-.32-5.7-3.58-4.69-6.74.12-.38.28-.72.49-.99,1.45-1.9,10.25-11.67,4.65-21.53-5.6-9.86-19.06-1.6-19.06-1.6,0,0-6.7,5.14-6.82-2.05-.12-7.19-3.02-16.45-8.48-17.1-5.47-.65-12.55,6.85-15.22,18.77-1.04,4.63-2.5,11.96-3.87,19.38-1.1,1.15-1.7,2.54-1.76,3.92-7.67-4.15-16.22-6.88-25.29-7.87-1.76-1.29-3.55-2.53-5.39-3.67-6.3-3.93-18.99-6.93-21.27,3.4-.19.84-.25,1.71-.23,2.59-11.9,3.44-22.48,9.98-30.82,18.7-6.24-.75-13.55,1.86-14.8,8.66-.58,3.16.61,6.77,1.99,10.1-4.11,8.86-6.41,18.71-6.41,29.12,0,.47.03.93.04,1.39-2.68.16-5.35,1.15-7.79,3.28-6.59,5.75-1.34,15.65.86,22.3.96,2.9,1.92,5.82,2.99,8.7-5.11,2.25-10.23,4.56-12.95,5.94-26.29,13.34-15.49,23.23-6.38,21.87.34-.05.64.02.87-.03.66-.14,1.31-.27,1.97-.38,1.81-.29,5.11-.77,6.59-.75,3.32.04,5.99,3.08,5.24,6.31-.09.39-.22.74-.4,1.03-1.28,2.02-12.1,12.84-5.69,22.19,6.42,9.35,22.01-.37,22.01-.37,0,0,6.24-5.69,6.97,1.47.73,7.15,4.4,16.14,9.9,16.32,5.5.18,11.92-7.89,13.57-19.99.63-4.59,1.44-11.81,2.16-19.15.28-.2.55-.41.8-.65,1.62-1.5,2.33-3.57,2.01-5.46.62.26,1.24.5,1.87.74,5.45,6.6,11.93,13.93,20.45,11.34,4.28-1.3,5.91-3.83,6.15-6.85,15.53-.42,29.77-5.95,41.13-14.97,7.12,1.58,15.2-.59,16.71-8.72.55-2.98.25-6.26-.53-9.56,6.4-10.5,10.09-22.83,10.09-36.02,0-3.69-.3-7.32-.85-10.85,4.37-2.01,7.85-5.62,8.73-10.69.36-2.05.12-4.16-.38-6.24,4.84-1.67,9.53-3.33,12.13-4.38,27.33-11.07,17.41-21.83,8.22-21.25Z"/></clipPath><radialGradient id="Dégradé_sans_nom_59" cx="154.49" cy="95.06" fx="154.49" fy="95.06" r="88.72" gradientUnits="userSpaceOnUse"><stop offset=".56" stop-color="#cee6e9"/><stop offset="1" stop-color="#a2c4c4"/></radialGradient><filter id="drop-shadow-1" filterUnits="userSpaceOnUse"><feOffset dx="7" dy="7"/><feGaussianBlur result="blur" stdDeviation="5"/><feFlood flood-color="#72a4a5" flood-opacity=".25"/><feComposite in2="blur" operator="in"/><feComposite in="SourceGraphic"/></filter></defs><g id="Calque_1-2"><g class="cls-1"><path class="cls-4" d="m114.07,143.3s-21.2,9-27.91,12.41c-26.29,13.34-15.49,23.23-6.38,21.87.34-.05.64.02.87-.03.66-.14,1.31-.27,1.97-.38,1.81-.29,5.11-.77,6.59-.75,3.32.04,5.98,3.08,5.24,6.31-.09.39-.22.74-.4,1.03-1.28,2.02-12.1,12.84-5.69,22.19,6.42,9.35,22.01-.37,22.01-.37,0,0,6.24-5.69,6.97,1.47.73,7.15,4.4,16.14,9.9,16.32,5.5.18,11.92-7.89,13.57-19.99,1.65-12.1,4.58-42.36,3.85-45.3s-21.09-17.42-21.09-17.42l-9.5,2.63Z"/><path class="cls-4" d="m232.42,91.92s21.88-7.17,28.86-10c27.33-11.07,17.41-21.83,8.22-21.25-.35.02-.64-.08-.87-.05-.67.09-1.33.16-2,.21-1.83.13-5.15.34-6.63.19-3.3-.32-5.7-3.58-4.69-6.74.12-.38.28-.72.49-.99,1.45-1.9,13.15-11.76,7.55-21.63-5.6-9.86-21.96-1.5-21.96-1.5,0,0-6.7,5.14-6.82-2.05-.12-7.19-3.02-16.45-8.48-17.1s-12.55,6.85-15.22,18.77c-2.67,11.92-8.16,41.82-7.68,44.81s19.54,19.15,19.54,19.15l9.69-1.81Z"/><circle class="cls-7" cx="172.34" cy="114.09" r="69.31"/><path class="cls-3" d="m247.33,80.53c-4.91-13.83-14.73-25.5-27.39-32.86-3.76-2.19-9.35-1.85-12.61,1.16-3.01,2.78-2.81,7.18.85,9.31,9.17,5.33,16.02,13.14,20.38,22.79.69,1.54,1.33,3.1,1.89,4.69.16.46.86,2.78.91,2.82,0,.04.02.07.02.12-12.53-10.61-25.01-21.5-37.61-32.12-6.15-5.19-12.37-10.63-19.21-14.9-6.3-3.93-18.99-6.93-21.27,3.4-1.57,7.1,4.89,16.07,8.34,21.84,5.14,8.61,10.75,16.93,16.36,25.23,10.59,15.67,22.35,31.17,30.75,48.18,1.05,2.13,2.04,4.34,2.9,6.59-3-2.85-5.98-5.72-8.96-8.6-13.95-13.48-27.73-27.12-41.63-40.64-5.93-5.77-11.88-11.54-17.91-17.2-5.34-5.01-11.12-11.49-18.32-13.58-6.61-1.93-15.96.37-17.38,8.14-.86,4.69,2.19,10.41,3.96,14.67,4.4,10.61,9.69,20.85,14.97,31.04,4.41,8.52,8.92,17,13.31,25.53-1.58-1.67-3.15-3.34-4.73-5.01-5.84-6.21-11.68-12.44-17.39-18.77-5.61-6.22-14.98-9.95-22.3-3.56-6.59,5.75-1.34,15.65.86,22.3,1.97,5.94,3.93,11.96,6.81,17.54,6.19,11.99,16.58,19.84,28.24,26.15,3.85,2.08,9.28,1.92,12.61-1.16,2.93-2.7,2.9-7.28-.85-9.31-8.85-4.79-17.33-10.31-22.34-19.31-1.82-3.27-3.26-6.74-4.56-10.25,1.59,1.69,3.16,3.4,4.75,5.09,7.48,7.95,15,15.86,22.44,23.84,6.37,6.83,13.93,19.87,24.89,16.55,10.77-3.27,4.8-14.38,1.86-21.31-7.16-16.84-16.06-32.94-24.51-49.15-4.33-8.31-8.64-16.63-12.64-25.11-.41-.88-.81-1.77-1.22-2.65,4.62,4.2,9.28,8.37,13.72,12.69,11.78,11.45,23.48,22.99,35.25,34.46,8.88,8.65,17.6,17.82,27.19,25.7,7.22,5.93,22.21,6.23,24.33-5.16,1.5-8.09-3.29-18.32-6.91-25.44-8.24-16.21-19.33-31.07-29.49-46.09-4.78-7.07-9.55-14.16-14.08-21.4,8.14,6.93,16.13,14.03,24.24,21,4,3.43,8.07,6.75,12.16,10.07.24.2.37.3.44.36,0,0,.1.1.72.64.88.76,1.77,1.52,2.67,2.25,3.35,2.73,6.69,4.13,11.13,3.99,7.52-.24,15.16-4.63,16.54-12.52.7-4.01-.88-8.27-2.2-12.01Z"/><path class="cls-5" d="m123.22,173.64c-.63-.53-1.25-1.06-1.86-1.61-.25-.23-.51-.45-.76-.68-.59-.55-1.18-1.11-1.76-1.67-.47-.46-.93-.94-1.39-1.42-.1-.11-.21-.22-.31-.32-3.85-4.04-7.22-8.53-10.05-13.38-6.48,2.59-14.23,5.85-19.29,8.53-10.14,5.36-8.74,7.81-6.87,7.81s22.49-5.01,25.98-5.36c3.5-.35,7.92.35,6.18,5.24-1.75,4.89-10.95,14.1-8.97,21.44s10.86,3.68,11.88,3.15c3.38-1.75,6.81-5.08,8.63-6.6.94-.79,2.36-.1,2.32,1.13-.11,3.64-1.07,10.65-.47,12.82.82,2.91,3.78,3.69,4.87,1.43.18-.38,2.94-4,2.59-13.08-.1-2.69-.17-6.32-.2-10.1-3.59-2.05-6.99-4.4-10.16-7.02-.12-.1-.23-.2-.35-.29Z"/><path class="cls-5" d="m221.56,55.24c.05.04.1.09.15.13.84.68,1.66,1.38,2.46,2.09.19.17.38.33.57.5.7.64,1.38,1.29,2.06,1.95.25.25.51.48.76.73.53.54,1.04,1.09,1.56,1.65,5.36,5.75,9.79,12.39,13.04,19.67,6.49-1.99,14.01-4.45,19.05-6.59,10.55-4.48,9.37-7.04,7.51-7.2-1.86-.16-22.83,3.08-26.34,3.14-3.51.05-7.86-1.02-5.71-5.75,2.16-4.73,12.11-13.12,10.76-20.6-1.35-7.48-10.51-4.58-11.57-4.14-3.52,1.45-7.22,4.48-9.16,5.85-1,.7-2.36-.1-2.22-1.32.42-3.62,1.97-10.52,1.55-12.73-.57-2.97-3.45-3.99-4.73-1.84-.21.36-3.26,3.73-3.69,12.82-.11,2.26-.3,5.19-.52,8.3,1.54,1.06,3.04,2.19,4.49,3.36,0,0,0-.01-.01-.02Z"/></g><path class="cls-6" d="m69.12,64.33c-.37-.19-.41-.57-.27-.85.15-.28.49-.48.86-.28l8.77,4.58,1.81-3.47c.2-.38.61-.44.9-.28.3.16.46.51.27.89l-2.11,4.03c-.18.35-.58.43-.86.28l-9.38-4.9Z"/><path class="cls-6" d="m74.25,55.2c-.38-.25-.38-.67-.2-.95l2.46-3.8c.24-.36.62-.37.9-.19.28.18.44.55.21.91l-2.12,3.27,3.2,2.08,1.68-2.59c.25-.38.63-.39.91-.21.28.18.45.57.21.94l-1.68,2.59,3.42,2.22,2.12-3.27c.22-.35.62-.35.89-.17.28.18.43.53.2.88l-2.46,3.8c-.18.28-.47.51-.95.2l-8.78-5.7Z"/><path class="cls-6" d="m88.05,50.82c.48.06,1.51-.1,2.28-1.05.32-.4.83-1.63-.2-2.68-.62-.65-1.82-.53-3.3.16-2.03,1-3.66,1.68-4.99.62-1.57-1.25-1.25-3.17-.12-4.58,1.02-1.28,2.37-1.35,2.97-1.28.85.1.79,1.31-.11,1.3-.45,0-1.24.04-1.84.79-.68.84-.98,2.04-.09,2.75.71.57,1.73.1,3.22-.62,1.77-.83,3.57-1.73,5.2-.07,1.28,1.3,1.32,3.1.27,4.42-.8,1-2.32,1.8-3.57,1.53-.9-.17-.67-1.4.28-1.29Z"/><path class="cls-6" d="m100.21,37.52c.46.14,1.51.16,2.42-.65.38-.34,1.09-1.47.25-2.68-.5-.74-1.71-.83-3.28-.4-2.17.64-3.9,1.04-5.02-.23-1.33-1.5-.7-3.33.66-4.53,1.22-1.08,2.56-.94,3.14-.76.82.24.56,1.43-.33,1.26-.44-.08-1.23-.17-1.95.47-.81.72-1.31,1.85-.55,2.7.6.68,1.69.39,3.28-.07,1.88-.52,3.82-1.1,5.14.8,1.04,1.5.78,3.28-.48,4.4-.96.85-2.59,1.38-3.78.91-.86-.32-.43-1.49.49-1.23Z"/><path class="cls-6" d="m111.17,27.76l-2.97,2.14.85,2.42c.29.84-.92,1.39-1.2.53-1.19-3.39-2.42-6.82-3.65-10.23-.12-.37.02-.72.27-.9.24-.17.61-.2.92.04l8.64,6.63c.61.48-.09,1.49-.79.96l-2.09-1.58Zm-3.42.84l2.35-1.69c-1.37-1.05-2.56-1.94-4.03-3.06l1.68,4.76Z"/><path class="cls-6" d="m118.83,23.49l-2.1-9c-.2-.86,1-1.17,1.21-.34l2.55,10.67c.09.36-.08.68-.37.85-.29.17-.69.18-.96-.08l-7.87-7.57c-.67-.64.28-1.48.85-.93l6.68,6.39Z"/><path class="cls-6" d="m122.42,11.81c-.19-.41.04-.77.34-.91l4.13-1.86c.39-.18.72.02.86.33.14.31.08.7-.32.88l-3.55,1.6,1.57,3.48,2.82-1.27c.41-.19.74.01.88.32.14.3.07.72-.33.9l-2.82,1.27,1.67,3.71,3.55-1.6c.38-.17.71.05.84.33.14.3.07.68-.31.85l-4.13,1.86c-.3.14-.68.17-.91-.35l-4.3-9.55Z"/><path class="cls-6" d="m132.66,7.4c-.13-.39.12-.7.42-.8.32-.1.68,0,.81.4l2.41,7.35c.44,1.35,1.62,1.85,2.89,1.44l.47-.15c1.31-.43,1.91-1.64,1.5-2.87l-2.41-7.35c-.13-.39.1-.7.42-.8.3-.1.68,0,.81.4l2.4,7.35c.63,1.93-.25,3.85-2.33,4.53l-.47.15c-2.08.68-3.89-.32-4.54-2.29l-2.4-7.35Z"/><path class="cls-6" d="m148.95,13.67c.09.42-.2.68-.51.75-.33.07-.68-.06-.76-.49l-2.15-10.35c-.08-.39.08-.68.5-.77l2.6-.54c.73-.15,3.09-.42,3.63,2.18l.5,2.41c.3,1.46-.04,2.5-1.19,3.16l1.86,2.37c.38.46.06.97-.36,1.06-.23.05-.55-.05-.77-.34l-2.01-2.6-1.91.4.57,2.76Zm2.04-8.95c-.1-.46-.49-1.49-2.09-1.16l-1.96.41,1.17,5.65,1.79-.37c.94-.2,1.9-.62,1.59-2.12l-.5-2.41Z"/><path class="cls-6" d="m159.16,10.23c.3.38,1.13,1.01,2.35.89.51-.05,1.74-.55,1.77-2.02.03-.89-.9-1.67-2.42-2.24-2.13-.75-3.77-1.44-3.94-3.12-.2-2,1.38-3.11,3.19-3.29,1.62-.17,2.63.74,2.99,1.22.52.68-.38,1.48-1,.83-.31-.33-.9-.86-1.86-.76-1.08.11-2.14.73-2.02,1.87.09.9,1.14,1.31,2.7,1.86,1.83.68,3.74,1.34,3.7,3.66-.03,1.82-1.28,3.12-2.97,3.29-1.27.13-2.91-.39-3.59-1.47-.51-.76.52-1.46,1.11-.71Z"/><path class="cls-6" d="m176.9.6c.04-.53.42-.62.7-.6l3.14.23c2.59.19,3.77,1.52,3.59,3.96l-.37,5.02c-.11,1.53-1.43,3.05-4.04,2.86l-3.2-.24c-.28-.02-.64-.2-.6-.68l.78-10.56Zm6.13,3.49c.12-1.61-.69-2.42-2.4-2.54l-2.49-.18-.68,9.24,2.55.19c1.2.09,2.56-.46,2.65-1.68l.37-5.02Z"/><path class="cls-6" d="m190.04,1.97c.08-.45.47-.61.8-.55l4.45.81c.43.08.58.43.52.76s-.33.62-.76.54l-3.83-.7-.68,3.76,3.04.55c.45.08.6.43.54.76-.06.33-.36.64-.78.56l-3.04-.55-.73,4.01,3.83.7c.41.07.56.44.5.75-.06.33-.33.6-.74.53l-4.45-.81c-.33-.06-.66-.24-.55-.8l1.88-10.3Z"/><path class="cls-6" d="m162.39,218.9c.12-1.68,1.07-2.11,2.42-2.02,1.12.08,2.16.72,2.08,1.9-.02.26-.21.37-.41.36-.2-.01-.39-.16-.37-.41.04-.59-.58-1.04-1.35-1.09-1.06-.07-1.53.33-1.6,1.32l-.19,2.81c-.07,1.01.47,1.37,1.41,1.43,1.12.08,1.55-.43,1.62-1.47l.04-.49-1.05-.07c-.24-.02-.36-.21-.35-.41s.16-.39.4-.37l1.46.1c.23.02.34.26.33.42l-.06.87c-.12,1.68-.81,2.28-2.44,2.17-1.54-.11-2.23-.72-2.13-2.24l.2-2.81Z"/><path class="cls-6" d="m169.58,219.2c.02-1.4.76-2.13,2.16-2.11h.3c1.39.03,2.11.78,2.09,2.18l-.04,2.89c-.02,1.28-.88,2.11-2.15,2.09h-.3c-1.29-.03-2.11-.89-2.09-2.16l.05-2.89Zm2.36,4.27c.84.01,1.35-.5,1.36-1.32l.05-2.89c.01-.91-.42-1.38-1.32-1.4h-.3c-.89-.02-1.38.45-1.4,1.35l-.05,2.89c-.01.85.52,1.35,1.36,1.36h.3Z"/><path class="cls-6" d="m176.79,217.45c-.02-.25.17-.39.36-.4.2-.01.39.1.41.35l.31,4.58c.06.84.66,1.3,1.45,1.25l.29-.02c.82-.06,1.34-.66,1.28-1.43l-.31-4.58c-.02-.24.16-.39.36-.4.19-.01.39.1.41.35l.31,4.58c.08,1.2-.71,2.18-2,2.26l-.29.02c-1.29.09-2.19-.75-2.27-1.97l-.31-4.58Z"/><path class="cls-6" d="m185.67,222.97c.03.25-.15.4-.33.42-.2.03-.4-.06-.43-.32l-.84-6.21c-.03-.23.08-.4.33-.43l1.56-.21c.44-.06,1.84-.12,2.06,1.44l.2,1.45c.12.88-.13,1.48-.84,1.82l1,1.48c.21.29,0,.58-.26.61-.14.02-.32-.05-.44-.23l-1.08-1.62-1.15.16.22,1.65Zm1.58-5.21c-.04-.28-.23-.9-1.19-.77l-1.18.16.46,3.39,1.08-.15c.57-.08,1.15-.29,1.03-1.19l-.2-1.45Z"/><path class="cls-6" d="m195.9,215.86l-.72,5.52c-.04.31-.4.46-.59.13l-2.85-4.76,1.08,5.09c.05.24-.11.4-.3.45-.19.04-.42-.04-.47-.28l-1.3-6.13c-.04-.22.08-.41.31-.46l.37-.08c.25-.05.43.1.52.26.89,1.52,1.71,2.86,2.61,4.38l.64-5.11c.02-.17.09-.35.33-.4l.46-.1c.33-.07.42.1.45.29l1.3,6.14c.05.24-.12.41-.31.45s-.4-.05-.45-.29l-1.08-5.09Z"/><path class="cls-6" d="m203.16,217.79l-2.08.61v1.52c0,.52-.79.59-.78.06,0-2.13,0-4.29-.01-6.44,0-.23.15-.4.33-.45.17-.05.38.01.51.2l3.52,5.41c.25.39-.34.82-.63.38l-.85-1.29Zm-2.08-.21l1.65-.48c-.56-.86-1.05-1.59-1.65-2.51v2.99Z"/><path class="cls-6" d="m211.17,216.55c.08.23-.05.42-.22.48-.13.05-.34.01-.47-.1-1.41-1.31-2.48-2.32-3.89-3.64l1.6,4.36c.08.23-.05.42-.23.48-.18.06-.41.01-.49-.22l-2.16-5.89c-.14-.38.4-.61.6-.42l3.98,3.72-1.61-4.39c-.08-.23.05-.42.23-.48.19-.07.42-.02.5.21l2.16,5.89Z"/><path class="cls-6" d="m211.68,209.6c-.13-.29.04-.44.19-.51l1.7-.76c1.41-.63,2.4-.27,2.99,1.05l1.22,2.73c.37.83.11,2-1.3,2.63l-1.74.78c-.15.07-.39.07-.5-.18l-2.56-5.73Zm4.18.1c-.39-.87-1.04-1.07-1.97-.65l-1.35.6,2.24,5.02,1.38-.62c.65-.29,1.21-.96.91-1.62l-1.22-2.73Z"/><path class="cls-6" d="m218.26,206.51c-.11-.22,0-.42.16-.5s.4-.06.51.16l2.87,5.59c.23.45-.45.79-.67.35l-2.87-5.59Z"/><path class="cls-6" d="m224.56,209.15c.25.14.86.27,1.48-.09.26-.15.81-.72.47-1.52-.2-.49-.89-.68-1.86-.63-1.34.11-2.38.14-2.89-.73-.59-1.03,0-2.02.92-2.55.84-.48,1.6-.24,1.91-.07.45.24.15.89-.34.69-.25-.1-.69-.25-1.19.04-.56.32-.98.92-.64,1.5.27.46.94.43,1.91.35,1.16-.07,2.35-.18,2.89,1.08.43.99.06,2-.81,2.5-.66.38-1.67.49-2.3.08-.46-.29-.07-.92.43-.65Z"/><path class="cls-6" d="m226.89,201.63c-.15-.22-.05-.46.12-.57l2.24-1.48c.21-.14.42-.06.53.11.11.17.11.4-.1.54l-1.93,1.27,1.25,1.89,1.53-1.01c.22-.15.43-.06.54.1.11.17.11.42-.11.56l-1.53,1.01,1.33,2.02,1.93-1.27c.21-.14.42-.04.52.12.11.17.11.39-.1.53l-2.24,1.48c-.17.11-.38.17-.57-.12l-3.42-5.18Z"/><path class="cls-6" d="m235.5,202.11c.27.11.88.17,1.46-.27.24-.18.72-.82.28-1.57-.26-.46-.97-.57-1.92-.4-1.31.27-2.35.42-2.96-.38-.71-.95-.25-2,.61-2.65.78-.58,1.56-.43,1.89-.3.47.18.26.87-.25.73-.26-.07-.72-.16-1.18.18-.51.38-.86,1.03-.46,1.57.32.43.98.32,1.94.12,1.14-.21,2.31-.46,3,.73.54.94.3,1.98-.5,2.58-.61.46-1.6.69-2.28.35-.49-.23-.18-.9.35-.7Z"/><path class="cls-6" d="m240.16,191.52c-.19-.21-.09-.42.03-.54l1.98-1.82c.19-.17.41-.12.54.02.13.15.17.38-.02.55l-1.69,1.56,1.53,1.67,1.35-1.24c.19-.17.43-.12.56.02.13.15.17.39-.02.56l-1.35,1.24,1.9,2.07c.17.18.11.41-.03.54-.15.13-.37.17-.54-.01l-4.25-4.62Z"/><path class="cls-6" d="m244.32,187.64c-.19-.19-.15-.43,0-.58l1.87-1.93c.18-.18.4-.15.54,0,.14.14.2.37.02.55l-1.61,1.66,1.62,1.58,1.27-1.32c.19-.19.41-.15.55-.02.14.14.2.38.02.57l-1.27,1.31,1.73,1.68,1.61-1.66c.17-.18.4-.13.54,0,.14.14.19.36.02.54l-1.87,1.93c-.14.14-.33.24-.58,0l-4.46-4.32Z"/><path class="cls-6" d="m252.84,186.24c.28.04.9-.03,1.37-.58.2-.23.52-.95-.06-1.59-.35-.4-1.07-.35-1.96.02-1.22.55-2.21.92-2.97.27-.9-.77-.67-1.9.03-2.71.63-.73,1.43-.75,1.78-.7.5.08.44.79-.09.77-.27-.01-.74,0-1.11.43-.42.49-.62,1.19-.11,1.63.41.35,1.02.1,1.92-.3,1.07-.45,2.15-.95,3.08.06.73.8.72,1.86.07,2.62-.49.58-1.41,1.02-2.15.83-.53-.12-.37-.84.19-.76Z"/><path class="cls-6" d="m254.23,175.47c.15-.2.38-.17.53-.05.16.12.24.33.09.52l-.8,1.06,4.67,3.55c.2.15.18.38.06.54s-.33.23-.53.08l-4.67-3.55-.85,1.12c-.15.2-.37.18-.53.06-.16-.12-.24-.33-.1-.53l2.13-2.81Z"/><path class="cls-6" d="m256.12,173.43c-.2-.14-.2-.37-.1-.52.11-.15.32-.24.53-.11l5.18,3.56c.41.28-.02.91-.43.62l-5.18-3.56Z"/><path class="cls-6" d="m263.48,171.56l-3.62-4.11c-.35-.39.2-.89.54-.52l4.32,4.86c.15.16.15.38.05.55-.1.17-.31.29-.52.23l-6.23-1.74c-.53-.15-.27-.85.18-.72l5.28,1.46Z"/><path class="cls-6" d="m261.55,164.76c-.24-.13-.26-.38-.17-.55l1.26-2.37c.12-.23.35-.25.52-.16.17.09.29.3.17.53l-1.09,2.04,2,1.07.86-1.62c.13-.24.35-.26.53-.17.17.09.29.32.17.54l-.86,1.62,2.13,1.14,1.09-2.04c.12-.22.35-.24.52-.15.17.09.28.29.16.51l-1.26,2.37c-.09.17-.25.33-.55.17l-5.48-2.92Z"/><path class="cls-6" d="m269.34,161.08c.29-.04.86-.28,1.16-.93.13-.28.24-1.06-.5-1.51-.45-.28-1.12-.04-1.88.57-1.02.87-1.86,1.5-2.78,1.08-1.08-.5-1.17-1.64-.73-2.62.4-.88,1.17-1.12,1.52-1.16.5-.06.64.64.13.76-.26.06-.71.2-.95.72-.27.58-.27,1.31.35,1.6.49.22,1.01-.19,1.76-.82.9-.73,1.81-1.51,2.98-.79.92.56,1.21,1.59.79,2.5-.32.69-1.08,1.37-1.83,1.39-.54.03-.59-.71-.03-.78Z"/><path class="cls-6" d="m130,126.29c-1.42,2.01-5.06,7.55-8.13,5.3-1.63-1.19-1.24-3.67-1.06-5.2.44-3.7,1.4-7.4,2.19-11.04,1.65-7.61,3.61-15.17,5-22.83.5-2.78-2.47-3.77-4.93-3.16-2.28-2.37-5.14-4-8.73-4.09-5.15-.14-10.12,2.52-13.3,6.48-6.54,8.13-10.34,19.46-11,30.08-.6,2.67-1.13,6.07-2.53,8.32-1.56,2.51-1.01-.97-1.12-2.47-.52-6.8-1.02-13.59-1.36-20.4-.16-3.2-.31-6.39-.43-9.59-.11-2.87.28-6.3-.79-9.03-1.79-4.56-7.95-4.33-10.82-.88-2.07,2.48-3.07,6.27-4.37,9.21-1.95,4.43-3.89,8.86-5.84,13.28-1.82,4.13-3.63,8.27-5.45,12.4-.77,1.75-1.99,3.63-2.71,5.45-.73-9.55-1.47-19.1-2.2-28.65-.36-4.73-.47-12.14-6.99-11.99-3.37.08-5.07,2-6.59,4.74-2.26,4.04-4.32,8.2-6.48,12.3-2.33,4.43-4.65,8.86-6.96,13.29-.22.42-.44.84-.65,1.26.03-.58.07-1.16.1-1.74.29-5.12.58-10.25.87-15.37.29-5.13,2.68-15.54-5.7-15.19-6.34.27-8.85,9.62-11.22,14.33-2.82,5.59-5.64,11.17-8.45,16.76-2.07,4.12,5.48,5.66,7.15,2.34,2.37-4.72,4.75-9.43,7.13-14.15.99-1.96,1.98-3.91,2.96-5.87-.04,2.18.05,4.4-.06,6.36-.26,4.48-.51,8.97-.77,13.45-.22,3.83-.63,7.69-.66,11.53-.02,2.78.09,4.24,2.92,5.29,1.56.58,3.53.14,4.78-.9,2.69-2.23,4.04-6.74,5.64-9.81,2.33-4.49,4.67-8.97,7.02-13.45,2.01-3.84,4.03-7.68,6.05-11.52.6-1.15,1.21-2.29,1.81-3.44,1.14,9.01,1.32,18.28,2.02,27.32.41,5.34.32,13.76,8.11,12.54,6.76-1.06,9.55-11.43,11.86-16.68,1.82-4.13,3.63-8.27,5.45-12.4,1.37-3.12,3.42-6.56,4.85-9.97.11,2.96.25,5.92.4,8.88.35,7.08.87,14.15,1.4,21.21.41,5.41,3.23,9.69,9.48,8.78,2.02-.3,3.58-1.16,4.82-2.37.89.96,2.03,1.71,3.51,2.16,4.9,1.5,10.02-.74,13.17-4.5,1.27-1.52,2.4-3.21,3.43-4.96-.1,4.08,1.16,7.8,5.65,9.48,7.87,2.96,14.39-2.48,18.67-8.54,2.62-3.71-5.02-5.36-7.15-2.34Zm-25.89,1.51c-1.05,1.58-3.28,5.08-5.26,2.94-.96-1.04-.88-3.39-.93-4.72-.05-1.27-.01-2.55.06-3.84.01-.04.02-.09.03-.13.09-.37.09-.7.04-1.01.49-5.92,2.12-11.93,4.42-17.23,1.46-3.39,3.37-7.44,6.02-10.06,4.08-4.03,7.65-2.1,10.18,2.14-2.58,7.12-5.52,14.1-8.83,20.93-1.78,3.67-3.46,7.57-5.73,10.98Z"/><path class="cls-6" d="m335.6,126.29c-1.42,2.01-5.06,7.55-8.13,5.3-1.63-1.19-1.24-3.67-1.06-5.2.44-3.7,1.4-7.4,2.19-11.04,1.65-7.61,3.61-15.17,5-22.83.5-2.78-2.47-3.77-4.93-3.16-2.28-2.37-5.14-4-8.73-4.09-5.15-.14-10.12,2.52-13.3,6.48-7.44,9.25-11.34,22.64-11.1,34.41,0,0,0,0,0,0-2.26,2.28-5.21,4.93-8.36,5.05-3.34.13-3.1-3.2-3.27-6.01-.31-5.08.49-10.21,1.21-15.22,1.2-8.39,1.9-12.64,3.57-22.53.42-2.52-5-3.87-7.33-2.94,0,.51-.1,1.48-.22,2.14-1.25,6.38-6.52,29.3-10.36,35.66-1.57,2.61-8.35,11.73-12.43,9.39-1.81-1.04-1.66-7.02-1.6-8.95.04-1.3.23-2.6.39-3.89,2.93-23.34,13.62-77.87,13.7-85.49.03-3.01-5.93-3.56-8.25-2.24.34.68.52,1.47.36,2.17-1.49,6.43-5.86,34.38-8.25,46.08-2.09,10.26-4.14,20.54-6.59,30.73-.74,3.05-1.44,6.12-2.82,8.96-1.98,4.1-4.77,7.94-8.63,10.44-3.88,2.51-10.49,4.35-10.14-2.15.3-5.51,2.21-11.57,3.43-17.05,1.32-5.92,2.81-11.83,3.89-17.8.5-2.78-2.47-3.77-4.93-3.16-2.28-2.37-5.14-4-8.73-4.09-5.15-.14-10.12,2.52-13.3,6.48-7.44,9.25-11.34,22.64-11.1,34.41.09,4.63,1.35,9.48,6.29,11,4.9,1.5,10.02-.74,13.17-4.5,1.25-1.5,2.36-3.15,3.38-4.88-.2,8,6.42,11.07,14.04,9.76,6.73-1.16,12.22-5.21,16.23-10.47.35,4.18,1.73,8.51,5.65,10.09,5.55,2.24,12.08-.88,16.37-4.34,1.99-1.6,3.68-3.43,5.14-5.42.44,4.16,1.97,8.02,6.43,9.32,5.15,1.5,10.33-.38,14.69-3.36.96,1.73,2.44,3.11,4.68,3.79,4.9,1.5,10.02-.74,13.17-4.5,1.27-1.52,2.4-3.21,3.43-4.96-.1,4.08,1.16,7.8,5.65,9.48,7.87,2.96,14.39-2.48,18.67-8.54,2.62-3.71-5.02-5.36-7.15-2.34Zm-125.68,1.51c-1.05,1.58-3.28,5.08-5.26,2.94-.96-1.04-.88-3.39-.93-4.72-.28-7.44,1.61-15.4,4.55-22.21,1.46-3.39,3.37-7.44,6.02-10.06,4.08-4.03,7.65-2.1,10.18,2.14-2.59,7.12-5.52,14.1-8.83,20.93-1.78,3.67-3.46,7.57-5.73,10.98Zm99.79,0c-1.05,1.58-3.28,5.08-5.26,2.94-.71-.77-.85-2.25-.89-3.51.11-.41.09-.8-.03-1.15,0-.02,0-.04,0-.05-.28-7.44,1.61-15.4,4.55-22.21,1.46-3.39,3.37-7.44,6.02-10.06,4.08-4.03,7.65-2.1,10.18,2.14-2.59,7.12-5.52,14.1-8.83,20.93-1.78,3.67-3.46,7.57-5.73,10.98Z"/><path class="cls-6" d="m184.74,98.26c-1.54-2.96-3.67-6.14-4.62-9.47,0-1.41-.19-2.81-.71-4.16-1.28-3.31-7.71-1.95-7.75,1.5-.02,1.37.18,2.73.52,4.1-.23,2.77-1.23,6.01-1.59,8.04-.55,3.15-1.12,6.3-1.89,9.41-.89,3.61-2.02,6.61-3.93,9.08-1.16-4.57-3.18-9.15-5.09-13.28-2.05-4.43-5.81-9.38-7.19-14.36,0-1.57-.21-3.08-.75-4.48-1.28-3.31-7.71-1.95-7.75,1.5-.02,1.42.22,2.8.62,4.14-.22,4.36-2.49,10.04-3.47,13.29-1.6,5.3-3.7,10.36-6.56,15.11-2.36,3.93,5.24,5.52,7.15,2.34,3.43-5.71,5.9-11.86,7.72-18.27.14-.48.29-.99.44-1.5,1.87,3.67,3.6,7.37,5.02,11.25,1.15,3.14,2.35,6.32,2.64,9.55-4.49,1.78-11,2.65-13.52,6.75-2.5,4.06.22,8.15,4.13,9.75,9.21,3.75,16.13-5.19,17.3-13.65,4.29-2.6,7.72-6.11,9.6-11.33,1.29-3.59,2.08-7.36,2.76-11.13,1.37,2.41,2.68,4.78,3.61,7.07,1.72,4.27,3.91,9.06,3.91,13.71,0,2.51-.63,5.4-2.1,7.52-.78,1.12-2.2,3.38-3.73,2.33-.59-.4-1.21-1.65-.33-2.19,4.46-2.73-.98-6.86-4.49-4.71-5.43,3.32-4.89,10,1.13,12.37,6.38,2.5,12.93-1.74,15.63-7.49,3.56-7.58.89-15.04-1.93-22.38-1.38-3.59-3.04-7.02-4.81-10.43Zm-33.5,33.83c.02-1.59,3.1-2.58,5.35-3.25-.46,1.17-1.1,2.5-2.01,3.31-.82.73-3.37,2.18-3.34-.06Z"/><path class="cls-6" d="m286.65,72.43c1.71.59,2.55.28,4.19-.61,1.81-.97,2.71-2.77,3.2-4.69.64-3.13,1.16-6.18-2.21-7.31-3.64-1.22-6.08.81-7.38,4.33-1.29,3.5-1.06,7.15,2.21,8.28Z"/></g></svg>