<?xml version="1.0" encoding="utf-8"?>
<!-- Generator: Adobe Illustrator 24.1.2, SVG Export Plug-In . SVG Version: 6.00 Build 0)  -->
<svg version="1.1" id="Calque_2_1_" xmlns="http://www.w3.org/2000/svg" xmlns:xlink="http://www.w3.org/1999/xlink" x="0px"
	 y="0px" viewBox="0 0 343.3 224.3" style="enable-background:new 0 0 343.3 224.3;" xml:space="preserve">
<style type="text/css">
	.st0{display:none;}
	.st1{display:inline;}
	.st2{display:inline;clip-path:url(#SVGID_2_);}
	.st3{fill:#F2E6E9;}
	.st4{fill:url(#SVGID_3_);}
	.st5{fill:#E6C2C4;}
	.st6{display:none;fill:#E9563A;}
	.st7{fill:#E9563A;}
</style>
<g id="Calque_1-2">
	<g class="st0">
		<defs>
			<path id="SVGID_1_" d="M269.5,60.7c-0.4,0-0.6-0.1-0.9,0c-0.7,0.1-1.3,0.2-2,0.2c-1.8,0.1-5.1,0.3-6.6,0.2
				c-3.3-0.3-5.7-3.6-4.7-6.7c0.1-0.4,0.3-0.7,0.5-1c1.4-1.9,10.2-11.7,4.7-21.5c-5.6-9.9-19.1-1.6-19.1-1.6s-6.7,5.1-6.8-2
				c-0.1-7.2-3-16.5-8.5-17.1c-5.5-0.6-12.6,6.9-15.2,18.8c-1,4.6-2.5,12-3.9,19.4c-1.1,1.2-1.7,2.5-1.8,3.9
				c-7.7-4.2-16.2-6.9-25.3-7.9c-1.8-1.3-3.6-2.5-5.4-3.7c-6.3-3.9-19-6.9-21.3,3.4c-0.2,0.8-0.3,1.7-0.2,2.6
				c-11.9,3.4-22.5,10-30.8,18.7c-6.2-0.8-13.6,1.9-14.8,8.7c-0.6,3.2,0.6,6.8,2,10.1c-4.1,8.9-6.4,18.7-6.4,29.1c0,0.5,0,0.9,0,1.4
				c-2.7,0.2-5.3,1.2-7.8,3.3c-6.6,5.8-1.3,15.6,0.9,22.3c1,2.9,1.9,5.8,3,8.7c-5.1,2.3-10.2,4.6-12.9,5.9
				c-26.3,13.3-15.5,23.2-6.4,21.9c0.3-0.1,0.6,0,0.9,0c0.7-0.1,1.3-0.3,2-0.4c1.8-0.3,5.1-0.8,6.6-0.8c3.3,0,6,3.1,5.2,6.3
				c-0.1,0.4-0.2,0.7-0.4,1c-1.3,2-12.1,12.8-5.7,22.2c6.4,9.4,22-0.4,22-0.4s6.2-5.7,7,1.5c0.7,7.1,4.4,16.1,9.9,16.3
				c5.5,0.2,11.9-7.9,13.6-20c0.6-4.6,1.4-11.8,2.2-19.1c0.3-0.2,0.6-0.4,0.8-0.6c1.6-1.5,2.3-3.6,2-5.5c0.6,0.3,1.2,0.5,1.9,0.7
				c5.4,6.6,11.9,13.9,20.4,11.3c4.3-1.3,5.9-3.8,6.1-6.9c15.5-0.4,29.8-5.9,41.1-15c7.1,1.6,15.2-0.6,16.7-8.7
				c0.6-3,0.3-6.3-0.5-9.6c6.4-10.5,10.1-22.8,10.1-36c0-3.7-0.3-7.3-0.9-10.8c4.4-2,7.9-5.6,8.7-10.7c0.4-2.1,0.1-4.2-0.4-6.2
				c4.8-1.7,9.5-3.3,12.1-4.4C288.6,70.8,278.7,60.1,269.5,60.7L269.5,60.7z"/>
		</defs>
		<clipPath id="SVGID_2_" class="st1">
			<use xlink:href="#SVGID_1_"  style="overflow:visible;"/>
		</clipPath>
		<g class="st2">
			<path class="st3" d="M114.1,143.3c0,0-21.2,9-27.9,12.4c-26.3,13.3-15.5,23.2-6.4,21.9c0.3-0.1,0.6,0,0.9,0
				c0.7-0.1,1.3-0.3,2-0.4c1.8-0.3,5.1-0.8,6.6-0.8c3.3,0,6,3.1,5.2,6.3c-0.1,0.4-0.2,0.7-0.4,1c-1.3,2-12.1,12.8-5.7,22.2
				c6.4,9.4,22-0.4,22-0.4s6.2-5.7,7,1.5c0.7,7.1,4.4,16.1,9.9,16.3s11.9-7.9,13.6-20s4.6-42.4,3.9-45.3s-21.1-17.4-21.1-17.4
				L114.1,143.3L114.1,143.3z"/>
			<path class="st3" d="M232.4,91.9c0,0,21.9-7.2,28.9-10c27.3-11.1,17.4-21.8,8.2-21.2c-0.4,0-0.6-0.1-0.9,0
				c-0.7,0.1-1.3,0.2-2,0.2c-1.8,0.1-5.1,0.3-6.6,0.2c-3.3-0.3-5.7-3.6-4.7-6.7c0.1-0.4,0.3-0.7,0.5-1c1.4-1.9,13.2-11.8,7.6-21.6
				c-5.6-9.9-22-1.5-22-1.5s-6.7,5.1-6.8-2c-0.1-7.2-3-16.5-8.5-17.1s-12.6,6.9-15.2,18.8s-8.2,41.8-7.7,44.8s19.5,19.2,19.5,19.2
				L232.4,91.9L232.4,91.9z"/>
			
				<radialGradient id="SVGID_3_" cx="154.49" cy="130.9401" r="88.72" gradientTransform="matrix(1 0 0 -1 0 226.0001)" gradientUnits="userSpaceOnUse">
				<stop  offset="0.56" style="stop-color:#CEE6E9"/>
				<stop  offset="1" style="stop-color:#A2C4C4"/>
			</radialGradient>
			<circle class="st4" cx="172.3" cy="114.1" r="69.3"/>
			<path class="st3" d="M247.3,80.5c-4.9-13.8-14.7-25.5-27.4-32.9c-3.8-2.2-9.4-1.8-12.6,1.2c-3,2.8-2.8,7.2,0.9,9.3
				c9.2,5.3,16,13.1,20.4,22.8c0.7,1.5,1.3,3.1,1.9,4.7c0.2,0.5,0.9,2.8,0.9,2.8c0,0,0,0.1,0,0.1c-12.5-10.6-25-21.5-37.6-32.1
				c-6.1-5.2-12.4-10.6-19.2-14.9c-6.3-3.9-19-6.9-21.3,3.4c-1.6,7.1,4.9,16.1,8.3,21.8c5.1,8.6,10.8,16.9,16.4,25.2
				c10.6,15.7,22.4,31.2,30.8,48.2c1.1,2.1,2,4.3,2.9,6.6c-3-2.9-6-5.7-9-8.6c-13.9-13.5-27.7-27.1-41.6-40.6
				c-5.9-5.8-11.9-11.5-17.9-17.2c-5.3-5-11.1-11.5-18.3-13.6c-6.6-1.9-16,0.4-17.4,8.1c-0.9,4.7,2.2,10.4,4,14.7
				c4.4,10.6,9.7,20.8,15,31c4.4,8.5,8.9,17,13.3,25.5c-1.6-1.7-3.1-3.3-4.7-5c-5.8-6.2-11.7-12.4-17.4-18.8
				c-5.6-6.2-15-9.9-22.3-3.6c-6.6,5.8-1.3,15.6,0.9,22.3c2,5.9,3.9,12,6.8,17.5c6.2,12,16.6,19.8,28.2,26.1
				c3.9,2.1,9.3,1.9,12.6-1.2c2.9-2.7,2.9-7.3-0.9-9.3c-8.9-4.8-17.3-10.3-22.3-19.3c-1.8-3.3-3.3-6.7-4.6-10.3
				c1.6,1.7,3.2,3.4,4.8,5.1c7.5,7.9,15,15.9,22.4,23.8c6.4,6.8,13.9,19.9,24.9,16.6c10.8-3.3,4.8-14.4,1.9-21.3
				c-7.2-16.8-16.1-32.9-24.5-49.2c-4.3-8.3-8.6-16.6-12.6-25.1c-0.4-0.9-0.8-1.8-1.2-2.7c4.6,4.2,9.3,8.4,13.7,12.7
				c11.8,11.4,23.5,23,35.3,34.5c8.9,8.6,17.6,17.8,27.2,25.7c7.2,5.9,22.2,6.2,24.3-5.2c1.5-8.1-3.3-18.3-6.9-25.4
				c-8.2-16.2-19.3-31.1-29.5-46.1c-4.8-7.1-9.6-14.2-14.1-21.4c8.1,6.9,16.1,14,24.2,21c4,3.4,8.1,6.8,12.2,10.1
				c0.2,0.2,0.4,0.3,0.4,0.4c0,0,0.1,0.1,0.7,0.6c0.9,0.8,1.8,1.5,2.7,2.3c3.4,2.7,6.7,4.1,11.1,4c7.5-0.2,15.2-4.6,16.5-12.5
				C250.2,88.6,248.6,84.3,247.3,80.5L247.3,80.5z"/>
			<path class="st5" d="M123.2,173.6c-0.6-0.5-1.3-1.1-1.9-1.6c-0.3-0.2-0.5-0.4-0.8-0.7c-0.6-0.6-1.2-1.1-1.8-1.7
				c-0.5-0.5-0.9-0.9-1.4-1.4c-0.1-0.1-0.2-0.2-0.3-0.3c-3.8-4-7.2-8.5-10.1-13.4c-6.5,2.6-14.2,5.9-19.3,8.5
				c-10.1,5.4-8.7,7.8-6.9,7.8s22.5-5,26-5.4c3.5-0.4,7.9,0.4,6.2,5.2c-1.8,4.9-10.9,14.1-9,21.4s10.9,3.7,11.9,3.1
				c3.4-1.8,6.8-5.1,8.6-6.6c0.9-0.8,2.4-0.1,2.3,1.1c-0.1,3.6-1.1,10.6-0.5,12.8c0.8,2.9,3.8,3.7,4.9,1.4c0.2-0.4,2.9-4,2.6-13.1
				c-0.1-2.7-0.2-6.3-0.2-10.1c-3.6-2.1-7-4.4-10.2-7C123.5,173.8,123.3,173.7,123.2,173.6L123.2,173.6z"/>
			<path class="st5" d="M221.6,55.2c0.1,0,0.1,0.1,0.1,0.1c0.8,0.7,1.7,1.4,2.5,2.1c0.2,0.2,0.4,0.3,0.6,0.5c0.7,0.6,1.4,1.3,2.1,2
				c0.3,0.3,0.5,0.5,0.8,0.7c0.5,0.5,1,1.1,1.6,1.7c5.4,5.8,9.8,12.4,13,19.7c6.5-2,14-4.4,19.1-6.6c10.5-4.5,9.4-7,7.5-7.2
				c-1.9-0.2-22.8,3.1-26.3,3.1c-3.5,0.1-7.9-1-5.7-5.8c2.2-4.7,12.1-13.1,10.8-20.6s-10.5-4.6-11.6-4.1c-3.5,1.5-7.2,4.5-9.2,5.8
				c-1,0.7-2.4-0.1-2.2-1.3c0.4-3.6,2-10.5,1.6-12.7c-0.6-3-3.4-4-4.7-1.8c-0.2,0.4-3.3,3.7-3.7,12.8c-0.1,2.3-0.3,5.2-0.5,8.3
				C218.6,53,220.1,54.1,221.6,55.2C221.6,55.3,221.6,55.2,221.6,55.2L221.6,55.2z"/>
		</g>
	</g>
	<path class="st6" d="M69.1,64.3c-0.4-0.2-0.4-0.6-0.3-0.8c0.2-0.3,0.5-0.5,0.9-0.3l8.8,4.6l1.8-3.5c0.2-0.4,0.6-0.4,0.9-0.3
		c0.3,0.2,0.5,0.5,0.3,0.9l-2.1,4c-0.2,0.3-0.6,0.4-0.9,0.3L69.1,64.3L69.1,64.3z"/>
	<path class="st6" d="M74.3,55.2c-0.4-0.3-0.4-0.7-0.2-1l2.5-3.8c0.2-0.4,0.6-0.4,0.9-0.2s0.4,0.5,0.2,0.9l-2.1,3.3l3.2,2.1l1.7-2.6
		c0.3-0.4,0.6-0.4,0.9-0.2c0.3,0.2,0.4,0.6,0.2,0.9l-1.7,2.6l3.4,2.2l2.1-3.3c0.2-0.3,0.6-0.3,0.9-0.2c0.3,0.2,0.4,0.5,0.2,0.9
		L84,60.7c-0.2,0.3-0.5,0.5-0.9,0.2L74.3,55.2L74.3,55.2z"/>
	<path class="st6" d="M88.1,50.8c0.5,0.1,1.5-0.1,2.3-1c0.3-0.4,0.8-1.6-0.2-2.7c-0.6-0.7-1.8-0.5-3.3,0.2c-2,1-3.7,1.7-5,0.6
		c-1.6-1.3-1.3-3.2-0.1-4.6c1-1.3,2.4-1.3,3-1.3c0.8,0.1,0.8,1.3-0.1,1.3c-0.4,0-1.2,0-1.8,0.8c-0.7,0.8-1,2-0.1,2.8
		c0.7,0.6,1.7,0.1,3.2-0.6c1.8-0.8,3.6-1.7,5.2-0.1c1.3,1.3,1.3,3.1,0.3,4.4c-0.8,1-2.3,1.8-3.6,1.5C86.9,51.9,87.1,50.7,88.1,50.8z
		"/>
	<path class="st6" d="M100.2,37.5c0.5,0.1,1.5,0.2,2.4-0.7c0.4-0.3,1.1-1.5,0.3-2.7c-0.5-0.7-1.7-0.8-3.3-0.4c-2.2,0.6-3.9,1-5-0.2
		c-1.3-1.5-0.7-3.3,0.7-4.5c1.2-1.1,2.6-0.9,3.1-0.8c0.8,0.2,0.6,1.4-0.3,1.3c-0.4-0.1-1.2-0.2-1.9,0.5c-0.8,0.7-1.3,1.9-0.6,2.7
		c0.6,0.7,1.7,0.4,3.3-0.1c1.9-0.5,3.8-1.1,5.1,0.8c1,1.5,0.8,3.3-0.5,4.4c-1,0.8-2.6,1.4-3.8,0.9C98.8,38.4,99.3,37.2,100.2,37.5
		L100.2,37.5z"/>
	<path class="st6" d="M111.2,27.8l-3,2.1l0.8,2.4c0.3,0.8-0.9,1.4-1.2,0.5c-1.2-3.4-2.4-6.8-3.7-10.2c-0.1-0.4,0-0.7,0.3-0.9
		c0.2-0.2,0.6-0.2,0.9,0l8.6,6.6c0.6,0.5-0.1,1.5-0.8,1L111.2,27.8L111.2,27.8z M107.8,28.6l2.3-1.7c-1.4-1-2.6-1.9-4-3.1
		L107.8,28.6L107.8,28.6z"/>
	<path class="st6" d="M118.8,23.5l-2.1-9c-0.2-0.9,1-1.2,1.2-0.3l2.6,10.7c0.1,0.4-0.1,0.7-0.4,0.9s-0.7,0.2-1-0.1l-7.9-7.6
		c-0.7-0.6,0.3-1.5,0.8-0.9L118.8,23.5L118.8,23.5z"/>
	<path class="st6" d="M122.4,11.8c-0.2-0.4,0-0.8,0.3-0.9l4.1-1.9c0.4-0.2,0.7,0,0.9,0.3c0.1,0.3,0.1,0.7-0.3,0.9l-3.6,1.6l1.6,3.5
		l2.8-1.3c0.4-0.2,0.7,0,0.9,0.3c0.1,0.3,0.1,0.7-0.3,0.9l-2.8,1.3l1.7,3.7l3.5-1.6c0.4-0.2,0.7,0,0.8,0.3c0.1,0.3,0.1,0.7-0.3,0.9
		l-4.1,1.9c-0.3,0.1-0.7,0.2-0.9-0.4L122.4,11.8L122.4,11.8z"/>
	<path class="st6" d="M132.7,7.4c-0.1-0.4,0.1-0.7,0.4-0.8c0.3-0.1,0.7,0,0.8,0.4l2.4,7.4c0.4,1.4,1.6,1.9,2.9,1.4l0.5-0.1
		c1.3-0.4,1.9-1.6,1.5-2.9l-2.4-7.3c-0.1-0.4,0.1-0.7,0.4-0.8c0.3-0.1,0.7,0,0.8,0.4l2.4,7.3c0.6,1.9-0.3,3.9-2.3,4.5l-0.5,0.1
		c-2.1,0.7-3.9-0.3-4.5-2.3L132.7,7.4L132.7,7.4z"/>
	<path class="st6" d="M148.9,13.7c0.1,0.4-0.2,0.7-0.5,0.8c-0.3,0.1-0.7-0.1-0.8-0.5l-2.1-10.4c-0.1-0.4,0.1-0.7,0.5-0.8l2.6-0.5
		c0.7-0.2,3.1-0.4,3.6,2.2l0.5,2.4c0.3,1.5,0,2.5-1.2,3.2l1.9,2.4c0.4,0.5,0.1,1-0.4,1.1c-0.2,0.1-0.6-0.1-0.8-0.3l-2-2.6l-1.9,0.4
		L148.9,13.7L148.9,13.7z M151,4.7c-0.1-0.5-0.5-1.5-2.1-1.2l-2,0.4l1.2,5.7l1.8-0.4c0.9-0.2,1.9-0.6,1.6-2.1L151,4.7L151,4.7z"/>
	<path class="st6" d="M159.2,10.2c0.3,0.4,1.1,1,2.4,0.9c0.5-0.1,1.7-0.6,1.8-2c0-0.9-0.9-1.7-2.4-2.2c-2.1-0.8-3.8-1.4-3.9-3.1
		c-0.2-2,1.4-3.1,3.2-3.3c1.6-0.2,2.6,0.7,3,1.2c0.5,0.7-0.4,1.5-1,0.8c-0.3-0.3-0.9-0.9-1.9-0.8c-1.1,0.1-2.1,0.7-2,1.9
		c0.1,0.9,1.1,1.3,2.7,1.9c1.8,0.7,3.7,1.3,3.7,3.7c0,1.8-1.3,3.1-3,3.3c-1.3,0.1-2.9-0.4-3.6-1.5C157.6,10.2,158.6,9.5,159.2,10.2
		L159.2,10.2z"/>
	<path class="st6" d="M176.9,0.6c0-0.5,0.4-0.6,0.7-0.6l3.1,0.2c2.6,0.2,3.8,1.5,3.6,4l-0.4,5c-0.1,1.5-1.4,3.1-4,2.9l-3.2-0.2
		c-0.3,0-0.6-0.2-0.6-0.7L176.9,0.6L176.9,0.6z M183,4.1c0.1-1.6-0.7-2.4-2.4-2.5l-2.5-0.2l-0.7,9.2l2.6,0.2
		c1.2,0.1,2.6-0.5,2.6-1.7L183,4.1L183,4.1z"/>
	<path class="st6" d="M190,2c0.1-0.5,0.5-0.6,0.8-0.5l4.4,0.8c0.4,0.1,0.6,0.4,0.5,0.8s-0.3,0.6-0.8,0.5l-3.8-0.7l-0.7,3.8l3,0.6
		c0.4,0.1,0.6,0.4,0.5,0.8c-0.1,0.3-0.4,0.6-0.8,0.6l-3-0.6l-0.7,4l3.8,0.7c0.4,0.1,0.6,0.4,0.5,0.8c-0.1,0.3-0.3,0.6-0.7,0.5
		l-4.4-0.8c-0.3-0.1-0.7-0.2-0.6-0.8L190,2L190,2z"/>
	<path class="st7" d="M162.4,218.9c0.1-1.7,1.1-2.1,2.4-2c1.1,0.1,2.2,0.7,2.1,1.9c0,0.3-0.2,0.4-0.4,0.4s-0.4-0.2-0.4-0.4
		c0-0.6-0.6-1-1.4-1.1c-1.1-0.1-1.5,0.3-1.6,1.3l-0.2,2.8c-0.1,1,0.5,1.4,1.4,1.4c1.1,0.1,1.6-0.4,1.6-1.5l0-0.5l-1.1-0.1
		c-0.2,0-0.4-0.2-0.4-0.4s0.2-0.4,0.4-0.4l1.5,0.1c0.2,0,0.3,0.3,0.3,0.4l-0.1,0.9c-0.1,1.7-0.8,2.3-2.4,2.2
		c-1.5-0.1-2.2-0.7-2.1-2.2L162.4,218.9L162.4,218.9z"/>
	<path class="st7" d="M169.6,219.2c0-1.4,0.8-2.1,2.2-2.1h0.3c1.4,0,2.1,0.8,2.1,2.2l0,2.9c0,1.3-0.9,2.1-2.1,2.1h-0.3
		c-1.3,0-2.1-0.9-2.1-2.2L169.6,219.2L169.6,219.2z M171.9,223.5c0.8,0,1.4-0.5,1.4-1.3l0.1-2.9c0-0.9-0.4-1.4-1.3-1.4h-0.3
		c-0.9,0-1.4,0.4-1.4,1.4l-0.1,2.9c0,0.9,0.5,1.4,1.4,1.4L171.9,223.5L171.9,223.5z"/>
	<path class="st7" d="M176.8,217.4c0-0.3,0.2-0.4,0.4-0.4c0.2,0,0.4,0.1,0.4,0.4l0.3,4.6c0.1,0.8,0.7,1.3,1.4,1.3l0.3,0
		c0.8-0.1,1.3-0.7,1.3-1.4l-0.3-4.6c0-0.2,0.2-0.4,0.4-0.4c0.2,0,0.4,0.1,0.4,0.4l0.3,4.6c0.1,1.2-0.7,2.2-2,2.3l-0.3,0
		c-1.3,0.1-2.2-0.8-2.3-2L176.8,217.4L176.8,217.4z"/>
	<path class="st7" d="M185.7,223c0,0.3-0.1,0.4-0.3,0.4c-0.2,0-0.4-0.1-0.4-0.3l-0.8-6.2c0-0.2,0.1-0.4,0.3-0.4l1.6-0.2
		c0.4-0.1,1.8-0.1,2.1,1.4l0.2,1.4c0.1,0.9-0.1,1.5-0.8,1.8l1,1.5c0.2,0.3,0,0.6-0.3,0.6c-0.1,0-0.3-0.1-0.4-0.2l-1.1-1.6l-1.1,0.2
		L185.7,223L185.7,223z M187.3,217.8c0-0.3-0.2-0.9-1.2-0.8l-1.2,0.2l0.5,3.4l1.1-0.1c0.6-0.1,1.1-0.3,1-1.2L187.3,217.8
		L187.3,217.8z"/>
	<path class="st7" d="M195.9,215.9l-0.7,5.5c0,0.3-0.4,0.5-0.6,0.1l-2.9-4.8l1.1,5.1c0.1,0.2-0.1,0.4-0.3,0.4c-0.2,0-0.4,0-0.5-0.3
		l-1.3-6.1c0-0.2,0.1-0.4,0.3-0.5l0.4-0.1c0.3-0.1,0.4,0.1,0.5,0.3c0.9,1.5,1.7,2.9,2.6,4.4l0.6-5.1c0-0.2,0.1-0.4,0.3-0.4l0.5-0.1
		c0.3-0.1,0.4,0.1,0.4,0.3l1.3,6.1c0.1,0.2-0.1,0.4-0.3,0.4s-0.4-0.1-0.4-0.3L195.9,215.9L195.9,215.9z"/>
	<path class="st7" d="M203.2,217.8l-2.1,0.6v1.5c0,0.5-0.8,0.6-0.8,0.1c0-2.1,0-4.3,0-6.4c0-0.2,0.1-0.4,0.3-0.4
		c0.2-0.1,0.4,0,0.5,0.2l3.5,5.4c0.3,0.4-0.3,0.8-0.6,0.4L203.2,217.8L203.2,217.8z M201.1,217.6l1.6-0.5c-0.6-0.9-1.1-1.6-1.6-2.5
		V217.6L201.1,217.6z"/>
	<path class="st7" d="M211.2,216.5c0.1,0.2-0.1,0.4-0.2,0.5c-0.1,0.1-0.3,0-0.5-0.1c-1.4-1.3-2.5-2.3-3.9-3.6l1.6,4.4
		c0.1,0.2-0.1,0.4-0.2,0.5s-0.4,0-0.5-0.2l-2.2-5.9c-0.1-0.4,0.4-0.6,0.6-0.4l4,3.7l-1.6-4.4c-0.1-0.2,0.1-0.4,0.2-0.5
		c0.2-0.1,0.4,0,0.5,0.2L211.2,216.5z"/>
	<path class="st7" d="M211.7,209.6c-0.1-0.3,0-0.4,0.2-0.5l1.7-0.8c1.4-0.6,2.4-0.3,3,1.1l1.2,2.7c0.4,0.8,0.1,2-1.3,2.6l-1.7,0.8
		c-0.1,0.1-0.4,0.1-0.5-0.2L211.7,209.6L211.7,209.6z M215.9,209.7c-0.4-0.9-1-1.1-2-0.6l-1.4,0.6l2.2,5l1.4-0.6
		c0.6-0.3,1.2-1,0.9-1.6L215.9,209.7L215.9,209.7z"/>
	<path class="st7" d="M218.3,206.5c-0.1-0.2,0-0.4,0.2-0.5s0.4-0.1,0.5,0.2l2.9,5.6c0.2,0.4-0.4,0.8-0.7,0.4L218.3,206.5
		L218.3,206.5z"/>
	<path class="st7" d="M224.6,209.1c0.3,0.1,0.9,0.3,1.5-0.1c0.3-0.1,0.8-0.7,0.5-1.5c-0.2-0.5-0.9-0.7-1.9-0.6
		c-1.3,0.1-2.4,0.1-2.9-0.7c-0.6-1,0-2,0.9-2.6c0.8-0.5,1.6-0.2,1.9-0.1c0.4,0.2,0.1,0.9-0.3,0.7c-0.3-0.1-0.7-0.3-1.2,0
		c-0.6,0.3-1,0.9-0.6,1.5c0.3,0.5,0.9,0.4,1.9,0.4c1.2-0.1,2.4-0.2,2.9,1.1c0.4,1,0.1,2-0.8,2.5c-0.7,0.4-1.7,0.5-2.3,0.1
		C223.6,209.5,224,208.9,224.6,209.1L224.6,209.1z"/>
	<path class="st7" d="M226.9,201.6c-0.1-0.2-0.1-0.5,0.1-0.6l2.2-1.5c0.2-0.1,0.4-0.1,0.5,0.1s0.1,0.4-0.1,0.5l-1.9,1.3l1.3,1.9
		l1.5-1c0.2-0.1,0.4-0.1,0.5,0.1c0.1,0.2,0.1,0.4-0.1,0.6l-1.5,1l1.3,2l1.9-1.3c0.2-0.1,0.4,0,0.5,0.1c0.1,0.2,0.1,0.4-0.1,0.5
		l-2.2,1.5c-0.2,0.1-0.4,0.2-0.6-0.1L226.9,201.6L226.9,201.6z"/>
	<path class="st7" d="M235.5,202.1c0.3,0.1,0.9,0.2,1.5-0.3c0.2-0.2,0.7-0.8,0.3-1.6c-0.3-0.5-1-0.6-1.9-0.4c-1.3,0.3-2.4,0.4-3-0.4
		c-0.7-0.9-0.3-2,0.6-2.6c0.8-0.6,1.6-0.4,1.9-0.3c0.5,0.2,0.3,0.9-0.3,0.7c-0.3-0.1-0.7-0.2-1.2,0.2c-0.5,0.4-0.9,1-0.5,1.6
		c0.3,0.4,1,0.3,1.9,0.1c1.1-0.2,2.3-0.5,3,0.7c0.5,0.9,0.3,2-0.5,2.6c-0.6,0.5-1.6,0.7-2.3,0.4C234.6,202.6,235,201.9,235.5,202.1
		L235.5,202.1z"/>
	<path class="st7" d="M240.2,191.5c-0.2-0.2-0.1-0.4,0-0.5l2-1.8c0.2-0.2,0.4-0.1,0.5,0c0.1,0.1,0.2,0.4,0,0.6l-1.7,1.6l1.5,1.7
		l1.4-1.2c0.2-0.2,0.4-0.1,0.6,0c0.1,0.1,0.2,0.4,0,0.6l-1.4,1.2l1.9,2.1c0.2,0.2,0.1,0.4,0,0.5c-0.1,0.1-0.4,0.2-0.5,0L240.2,191.5
		L240.2,191.5z"/>
	<path class="st7" d="M244.3,187.6c-0.2-0.2-0.1-0.4,0-0.6l1.9-1.9c0.2-0.2,0.4-0.1,0.5,0c0.1,0.1,0.2,0.4,0,0.6l-1.6,1.7l1.6,1.6
		l1.3-1.3c0.2-0.2,0.4-0.1,0.6,0c0.1,0.1,0.2,0.4,0,0.6l-1.3,1.3l1.7,1.7l1.6-1.7c0.2-0.2,0.4-0.1,0.5,0c0.1,0.1,0.2,0.4,0,0.5
		l-1.9,1.9c-0.1,0.1-0.3,0.2-0.6,0L244.3,187.6L244.3,187.6z"/>
	<path class="st7" d="M252.8,186.2c0.3,0,0.9,0,1.4-0.6c0.2-0.2,0.5-0.9-0.1-1.6c-0.4-0.4-1.1-0.4-2,0c-1.2,0.6-2.2,0.9-3,0.3
		c-0.9-0.8-0.7-1.9,0-2.7c0.6-0.7,1.4-0.8,1.8-0.7c0.5,0.1,0.4,0.8-0.1,0.8c-0.3,0-0.7,0-1.1,0.4c-0.4,0.5-0.6,1.2-0.1,1.6
		c0.4,0.4,1,0.1,1.9-0.3c1.1-0.4,2.1-0.9,3.1,0.1c0.7,0.8,0.7,1.9,0.1,2.6c-0.5,0.6-1.4,1-2.1,0.8
		C252.1,186.9,252.3,186.1,252.8,186.2L252.8,186.2z"/>
	<path class="st7" d="M254.2,175.5c0.1-0.2,0.4-0.2,0.5-0.1c0.2,0.1,0.2,0.3,0.1,0.5L254,177l4.7,3.6c0.2,0.1,0.2,0.4,0.1,0.5
		s-0.3,0.2-0.5,0.1l-4.7-3.6l-0.9,1.1c-0.1,0.2-0.4,0.2-0.5,0.1s-0.2-0.3-0.1-0.5L254.2,175.5L254.2,175.5z"/>
	<path class="st7" d="M256.1,173.4c-0.2-0.1-0.2-0.4-0.1-0.5c0.1-0.1,0.3-0.2,0.5-0.1l5.2,3.6c0.4,0.3,0,0.9-0.4,0.6L256.1,173.4
		L256.1,173.4z"/>
	<path class="st7" d="M263.5,171.6l-3.6-4.1c-0.4-0.4,0.2-0.9,0.5-0.5l4.3,4.9c0.1,0.2,0.1,0.4,0,0.6s-0.3,0.3-0.5,0.2l-6.2-1.7
		c-0.5-0.1-0.3-0.9,0.2-0.7L263.5,171.6L263.5,171.6z"/>
	<path class="st7" d="M261.5,164.8c-0.2-0.1-0.3-0.4-0.2-0.6l1.3-2.4c0.1-0.2,0.4-0.3,0.5-0.2c0.2,0.1,0.3,0.3,0.2,0.5l-1.1,2l2,1.1
		l0.9-1.6c0.1-0.2,0.4-0.3,0.5-0.2c0.2,0.1,0.3,0.3,0.2,0.5l-0.9,1.6l2.1,1.1l1.1-2c0.1-0.2,0.4-0.2,0.5-0.1
		c0.2,0.1,0.3,0.3,0.2,0.5l-1.3,2.4c-0.1,0.2-0.3,0.3-0.5,0.2L261.5,164.8L261.5,164.8z"/>
	<path class="st7" d="M269.3,161.1c0.3,0,0.9-0.3,1.2-0.9c0.1-0.3,0.2-1.1-0.5-1.5c-0.5-0.3-1.1,0-1.9,0.6c-1,0.9-1.9,1.5-2.8,1.1
		c-1.1-0.5-1.2-1.6-0.7-2.6c0.4-0.9,1.2-1.1,1.5-1.2c0.5-0.1,0.6,0.6,0.1,0.8c-0.3,0.1-0.7,0.2-1,0.7c-0.3,0.6-0.3,1.3,0.4,1.6
		c0.5,0.2,1-0.2,1.8-0.8c0.9-0.7,1.8-1.5,3-0.8c0.9,0.6,1.2,1.6,0.8,2.5c-0.3,0.7-1.1,1.4-1.8,1.4
		C268.8,161.9,268.8,161.2,269.3,161.1L269.3,161.1z"/>
	<path class="st6" d="M130,126.3c-1.4,2-5.1,7.5-8.1,5.3c-1.6-1.2-1.2-3.7-1.1-5.2c0.4-3.7,1.4-7.4,2.2-11c1.7-7.6,3.6-15.2,5-22.8
		c0.5-2.8-2.5-3.8-4.9-3.2c-2.3-2.4-5.1-4-8.7-4.1c-5.2-0.1-10.1,2.5-13.3,6.5c-6.5,8.1-10.3,19.5-11,30.1c-0.6,2.7-1.1,6.1-2.5,8.3
		c-1.6,2.5-1-1-1.1-2.5c-0.5-6.8-1-13.6-1.4-20.4c-0.2-3.2-0.3-6.4-0.4-9.6c-0.1-2.9,0.3-6.3-0.8-9c-1.8-4.6-7.9-4.3-10.8-0.9
		c-2.1,2.5-3.1,6.3-4.4,9.2c-1.9,4.4-3.9,8.9-5.8,13.3c-1.8,4.1-3.6,8.3-5.5,12.4c-0.8,1.8-2,3.6-2.7,5.5
		c-0.7-9.6-1.5-19.1-2.2-28.7c-0.4-4.7-0.5-12.1-7-12c-3.4,0.1-5.1,2-6.6,4.7c-2.3,4-4.3,8.2-6.5,12.3c-2.3,4.4-4.6,8.9-7,13.3
		c-0.2,0.4-0.4,0.8-0.6,1.3c0-0.6,0.1-1.2,0.1-1.7c0.3-5.1,0.6-10.3,0.9-15.4c0.3-5.1,2.7-15.5-5.7-15.2c-6.3,0.3-8.9,9.6-11.2,14.3
		c-2.8,5.6-5.6,11.2-8.4,16.8c-2.1,4.1,5.5,5.7,7.2,2.3c2.4-4.7,4.7-9.4,7.1-14.2c1-2,2-3.9,3-5.9c0,2.2,0,4.4-0.1,6.4
		c-0.3,4.5-0.5,9-0.8,13.4c-0.2,3.8-0.6,7.7-0.7,11.5c0,2.8,0.1,4.2,2.9,5.3c1.6,0.6,3.5,0.1,4.8-0.9c2.7-2.2,4-6.7,5.6-9.8
		c2.3-4.5,4.7-9,7-13.4c2-3.8,4-7.7,6-11.5c0.6-1.2,1.2-2.3,1.8-3.4c1.1,9,1.3,18.3,2,27.3c0.4,5.3,0.3,13.8,8.1,12.5
		c6.8-1.1,9.5-11.4,11.9-16.7c1.8-4.1,3.6-8.3,5.4-12.4c1.4-3.1,3.4-6.6,4.8-10c0.1,3,0.3,5.9,0.4,8.9c0.3,7.1,0.9,14.2,1.4,21.2
		c0.4,5.4,3.2,9.7,9.5,8.8c2-0.3,3.6-1.2,4.8-2.4c0.9,1,2,1.7,3.5,2.2c4.9,1.5,10-0.7,13.2-4.5c1.3-1.5,2.4-3.2,3.4-5
		c-0.1,4.1,1.2,7.8,5.7,9.5c7.9,3,14.4-2.5,18.7-8.5C139.8,124.9,132.1,123.3,130,126.3L130,126.3z M104.1,127.8
		c-1.1,1.6-3.3,5.1-5.3,2.9c-1-1-0.9-3.4-0.9-4.7c-0.1-1.3,0-2.6,0.1-3.8c0,0,0-0.1,0-0.1c0.1-0.4,0.1-0.7,0-1
		c0.5-5.9,2.1-11.9,4.4-17.2c1.5-3.4,3.4-7.4,6-10.1c4.1-4,7.7-2.1,10.2,2.1c-2.6,7.1-5.5,14.1-8.8,20.9
		C108.1,120.5,106.4,124.4,104.1,127.8L104.1,127.8z"/>
	<path class="st6" d="M335.6,126.3c-1.4,2-5.1,7.5-8.1,5.3c-1.6-1.2-1.2-3.7-1.1-5.2c0.4-3.7,1.4-7.4,2.2-11
		c1.6-7.6,3.6-15.2,5-22.8c0.5-2.8-2.5-3.8-4.9-3.2c-2.3-2.4-5.1-4-8.7-4.1c-5.1-0.1-10.1,2.5-13.3,6.5
		c-7.4,9.3-11.3,22.6-11.1,34.4l0,0c-2.3,2.3-5.2,4.9-8.4,5.1c-3.3,0.1-3.1-3.2-3.3-6c-0.3-5.1,0.5-10.2,1.2-15.2
		c1.2-8.4,1.9-12.6,3.6-22.5c0.4-2.5-5-3.9-7.3-2.9c0,0.5-0.1,1.5-0.2,2.1c-1.3,6.4-6.5,29.3-10.4,35.7c-1.6,2.6-8.4,11.7-12.4,9.4
		c-1.8-1-1.7-7-1.6-8.9c0-1.3,0.2-2.6,0.4-3.9c2.9-23.3,13.6-77.9,13.7-85.5c0-3-5.9-3.6-8.3-2.2c0.3,0.7,0.5,1.5,0.4,2.2
		c-1.5,6.4-5.9,34.4-8.3,46.1c-2.1,10.3-4.1,20.5-6.6,30.7c-0.7,3.1-1.4,6.1-2.8,9c-2,4.1-4.8,7.9-8.6,10.4
		c-3.9,2.5-10.5,4.4-10.1-2.2c0.3-5.5,2.2-11.6,3.4-17c1.3-5.9,2.8-11.8,3.9-17.8c0.5-2.8-2.5-3.8-4.9-3.2c-2.3-2.4-5.1-4-8.7-4.1
		c-5.1-0.1-10.1,2.5-13.3,6.5c-7.4,9.3-11.3,22.6-11.1,34.4c0.1,4.6,1.4,9.5,6.3,11c4.9,1.5,10-0.7,13.2-4.5
		c1.3-1.5,2.4-3.1,3.4-4.9c-0.2,8,6.4,11.1,14,9.8c6.7-1.2,12.2-5.2,16.2-10.5c0.4,4.2,1.7,8.5,5.6,10.1c5.5,2.2,12.1-0.9,16.4-4.3
		c2-1.6,3.7-3.4,5.1-5.4c0.4,4.2,2,8,6.4,9.3c5.1,1.5,10.3-0.4,14.7-3.4c1,1.7,2.4,3.1,4.7,3.8c4.9,1.5,10-0.7,13.2-4.5
		c1.3-1.5,2.4-3.2,3.4-5c-0.1,4.1,1.2,7.8,5.6,9.5c7.9,3,14.4-2.5,18.7-8.5C345.4,124.9,337.8,123.3,335.6,126.3L335.6,126.3z
		 M209.9,127.8c-1.1,1.6-3.3,5.1-5.3,2.9c-1-1-0.9-3.4-0.9-4.7c-0.3-7.4,1.6-15.4,4.6-22.2c1.5-3.4,3.4-7.4,6-10.1
		c4.1-4,7.6-2.1,10.2,2.1c-2.6,7.1-5.5,14.1-8.8,20.9C213.9,120.5,212.2,124.4,209.9,127.8L209.9,127.8z M309.7,127.8
		c-1,1.6-3.3,5.1-5.3,2.9c-0.7-0.8-0.9-2.3-0.9-3.5c0.1-0.4,0.1-0.8,0-1.2c0,0,0,0,0-0.1c-0.3-7.4,1.6-15.4,4.5-22.2
		c1.5-3.4,3.4-7.4,6-10.1c4.1-4,7.6-2.1,10.2,2.1c-2.6,7.1-5.5,14.1-8.8,20.9C313.7,120.5,312,124.4,309.7,127.8L309.7,127.8z"/>
	<path class="st6" d="M184.7,98.3c-1.5-3-3.7-6.1-4.6-9.5c0-1.4-0.2-2.8-0.7-4.2c-1.3-3.3-7.7-1.9-7.8,1.5c0,1.4,0.2,2.7,0.5,4.1
		c-0.2,2.8-1.2,6-1.6,8c-0.6,3.2-1.1,6.3-1.9,9.4c-0.9,3.6-2,6.6-3.9,9.1c-1.2-4.6-3.2-9.2-5.1-13.3c-2.1-4.4-5.8-9.4-7.2-14.4
		c0-1.6-0.2-3.1-0.8-4.5c-1.3-3.3-7.7-1.9-7.8,1.5c0,1.4,0.2,2.8,0.6,4.1c-0.2,4.4-2.5,10-3.5,13.3c-1.6,5.3-3.7,10.4-6.6,15.1
		c-2.4,3.9,5.2,5.5,7.1,2.3c3.4-5.7,5.9-11.9,7.7-18.3c0.1-0.5,0.3-1,0.4-1.5c1.9,3.7,3.6,7.4,5,11.3c1.1,3.1,2.4,6.3,2.6,9.6
		c-4.5,1.8-11,2.7-13.5,6.8c-2.5,4.1,0.2,8.1,4.1,9.8c9.2,3.8,16.1-5.2,17.3-13.7c4.3-2.6,7.7-6.1,9.6-11.3
		c1.3-3.6,2.1-7.4,2.8-11.1c1.4,2.4,2.7,4.8,3.6,7.1c1.7,4.3,3.9,9.1,3.9,13.7c0,2.5-0.6,5.4-2.1,7.5c-0.8,1.1-2.2,3.4-3.7,2.3
		c-0.6-0.4-1.2-1.6-0.3-2.2c4.5-2.7-1-6.9-4.5-4.7c-5.4,3.3-4.9,10,1.1,12.4c6.4,2.5,12.9-1.7,15.6-7.5c3.6-7.6,0.9-15-1.9-22.4
		C188.1,105.1,186.5,101.6,184.7,98.3L184.7,98.3z M151.2,132.1c0-1.6,3.1-2.6,5.4-3.3c-0.5,1.2-1.1,2.5-2,3.3
		C153.8,132.9,151.2,134.3,151.2,132.1L151.2,132.1z"/>
	<path class="st6" d="M286.6,72.4c1.7,0.6,2.5,0.3,4.2-0.6c1.8-1,2.7-2.8,3.2-4.7c0.6-3.1,1.2-6.2-2.2-7.3c-3.6-1.2-6.1,0.8-7.4,4.3
		C283.2,67.6,283.4,71.3,286.6,72.4L286.6,72.4z"/>
</g>
</svg>
